<svg width="100" height="100" fill="none" xmlns="http://www.w3.org/2000/svg"><path d="M26.216.946a1.486 1.486 0 110 2.973 1.486 1.486 0 010-2.973z" fill="#000"/><path d="M29.19.946a1.486 1.486 0 110 2.973 1.486 1.486 0 010-2.973zM44.054.946a1.486 1.486 0 110 2.973 1.486 1.486 0 010-2.973z" fill="#000"/><path d="M47.027.946a1.486 1.486 0 110 2.973 1.486 1.486 0 010-2.973zM52.973.946a1.486 1.486 0 110 2.973 1.486 1.486 0 010-2.973z" fill="#000"/><path d="M55.946.946a1.486 1.486 0 110 2.973 1.486 1.486 0 010-2.973z" fill="#000"/><path d="M58.919.946a1.486 1.486 0 110 2.973 1.486 1.486 0 010-2.973zM67.838.946a1.486 1.486 0 110 2.973 1.486 1.486 0 010-2.973z" fill="#000"/><path d="M70.81.946a1.486 1.486 0 110 2.973 1.486 1.486 0 010-2.973z" fill="#000"/><path d="M73.784.946a1.486 1.486 0 110 2.973 1.486 1.486 0 010-2.973zM26.216 3.919a1.486 1.486 0 110 2.973 1.486 1.486 0 010-2.973zM35.135 3.919a1.486 1.486 0 110 2.973 1.486 1.486 0 010-2.973zM41.081 3.919a1.486 1.486 0 110 2.973 1.486 1.486 0 010-2.973z" fill="#000"/><path d="M44.054 3.919a1.486 1.486 0 110 2.973 1.486 1.486 0 010-2.973zM52.973 3.919a1.486 1.486 0 110 2.973 1.486 1.486 0 010-2.973z" fill="#000"/><path d="M55.946 3.919a1.486 1.486 0 110 2.973 1.486 1.486 0 010-2.973z" fill="#000"/><path d="M58.919 3.919a1.486 1.486 0 110 2.973 1.486 1.486 0 010-2.973zM64.865 3.919a1.486 1.486 0 110 2.973 1.486 1.486 0 010-2.973z" fill="#000"/><path d="M67.838 3.919a1.486 1.486 0 110 2.973 1.486 1.486 0 010-2.973z" fill="#000"/><path d="M70.81 3.919a1.486 1.486 0 110 2.973 1.486 1.486 0 010-2.973zM29.19 6.892a1.486 1.486 0 110 2.973 1.486 1.486 0 010-2.973zM35.135 6.892a1.486 1.486 0 110 2.973 1.486 1.486 0 010-2.973z" fill="#000"/><path d="M38.108 6.892a1.486 1.486 0 110 2.973 1.486 1.486 0 010-2.973z" fill="#000"/><path d="M41.081 6.892a1.486 1.486 0 110 2.973 1.486 1.486 0 010-2.973zM47.027 6.892a1.486 1.486 0 110 2.973 1.486 1.486 0 010-2.973zM67.838 6.892a1.486 1.486 0 110 2.973 1.486 1.486 0 010-2.973zM73.784 6.892a1.486 1.486 0 110 2.973 1.486 1.486 0 010-2.973zM26.216 9.865a1.486 1.486 0 110 2.973 1.486 1.486 0 010-2.973zM35.135 9.865a1.486 1.486 0 110 2.973 1.486 1.486 0 010-2.973z" fill="#000"/><path d="M38.108 9.865a1.486 1.486 0 110 2.973 1.486 1.486 0 010-2.973z" fill="#000"/><path d="M41.081 9.865a1.486 1.486 0 110 2.973 1.486 1.486 0 010-2.973z" fill="#000"/><path d="M44.054 9.865a1.486 1.486 0 110 2.973 1.486 1.486 0 010-2.973z" fill="#000"/><path d="M47.027 9.865a1.486 1.486 0 110 2.973 1.486 1.486 0 010-2.973zM52.973 9.865a1.486 1.486 0 110 2.973 1.486 1.486 0 010-2.973z" fill="#000"/><path d="M55.946 9.865a1.486 1.486 0 110 2.973 1.486 1.486 0 010-2.973zM61.892 9.865a1.486 1.486 0 110 2.973 1.486 1.486 0 010-2.973zM67.838 9.865a1.486 1.486 0 110 2.973 1.486 1.486 0 010-2.973zM26.216 12.838a1.486 1.486 0 110 2.973 1.486 1.486 0 010-2.973zM38.108 12.838a1.486 1.486 0 110 2.973 1.486 1.486 0 010-2.973z" fill="#000"/><path d="M41.081 12.838a1.486 1.486 0 110 2.973 1.486 1.486 0 010-2.973zM47.027 12.838a1.486 1.486 0 110 2.973 1.486 1.486 0 010-2.973zM52.973 12.838a1.486 1.486 0 110 2.973 1.486 1.486 0 010-2.973z" fill="#000"/><path d="M55.946 12.838a1.486 1.486 0 110 2.973 1.486 1.486 0 010-2.973zM61.892 12.838a1.486 1.486 0 110 2.973 1.486 1.486 0 010-2.973zM67.838 12.838a1.486 1.486 0 110 2.973 1.486 1.486 0 010-2.973zM73.784 12.838a1.486 1.486 0 110 2.973 1.486 1.486 0 010-2.973zM26.216 15.81a1.486 1.486 0 110 2.974 1.486 1.486 0 010-2.973z" fill="#000"/><path d="M29.19 15.81a1.486 1.486 0 110 2.974 1.486 1.486 0 010-2.973z" fill="#000"/><path d="M32.162 15.81a1.486 1.486 0 110 2.974 1.486 1.486 0 010-2.973z" fill="#000"/><path d="M35.135 15.81a1.486 1.486 0 110 2.974 1.486 1.486 0 010-2.973zM41.081 15.81a1.486 1.486 0 110 2.974 1.486 1.486 0 010-2.973zM50 15.81a1.486 1.486 0 110 2.974 1.486 1.486 0 010-2.973zM61.892 15.81a1.486 1.486 0 110 2.974 1.486 1.486 0 010-2.973zM73.784 15.81a1.486 1.486 0 110 2.974 1.486 1.486 0 010-2.973zM26.216 18.784a1.486 1.486 0 110 2.973 1.486 1.486 0 010-2.973zM32.162 18.784a1.486 1.486 0 110 2.973 1.486 1.486 0 010-2.973zM38.108 18.784a1.486 1.486 0 110 2.973 1.486 1.486 0 010-2.973zM44.054 18.784a1.486 1.486 0 110 2.973 1.486 1.486 0 010-2.973zM50 18.784a1.486 1.486 0 110 2.973 1.486 1.486 0 010-2.973zM55.946 18.784a1.486 1.486 0 110 2.973 1.486 1.486 0 010-2.973zM61.892 18.784a1.486 1.486 0 110 2.973 1.486 1.486 0 010-2.973zM67.838 18.784a1.486 1.486 0 110 2.973 1.486 1.486 0 010-2.973zM73.784 18.784a1.486 1.486 0 110 2.973 1.486 1.486 0 010-2.973zM32.162 21.757a1.486 1.486 0 110 2.973 1.486 1.486 0 010-2.973z" fill="#000"/><path d="M35.135 21.757a1.486 1.486 0 110 2.972 1.486 1.486 0 010-2.972z" fill="#000"/><path d="M38.108 21.757a1.486 1.486 0 110 2.972 1.486 1.486 0 010-2.972z" fill="#000"/><path d="M41.081 21.757a1.486 1.486 0 110 2.973 1.486 1.486 0 010-2.973z" fill="#000"/><path d="M44.054 21.757a1.486 1.486 0 110 2.973 1.486 1.486 0 010-2.973z" fill="#000"/><path d="M47.027 21.757a1.486 1.486 0 110 2.973 1.486 1.486 0 010-2.973z" fill="#000"/><path d="M50 21.757a1.486 1.486 0 110 2.973 1.486 1.486 0 010-2.973zM55.946 21.757a1.486 1.486 0 110 2.972 1.486 1.486 0 010-2.972zM61.892 21.757a1.486 1.486 0 110 2.973 1.486 1.486 0 010-2.973z" fill="#000"/><path d="M64.865 21.757a1.486 1.486 0 110 2.973 1.486 1.486 0 010-2.973z" fill="#000"/><path d="M67.838 21.757a1.486 1.486 0 110 2.973 1.486 1.486 0 010-2.973z" fill="#000"/><path d="M70.81 21.757a1.486 1.486 0 110 2.973 1.486 1.486 0 010-2.973z" fill="#000"/><path d="M73.784 21.757a1.486 1.486 0 110 2.972 1.486 1.486 0 010-2.972zM11.351 24.73a1.486 1.486 0 110 2.972 1.486 1.486 0 010-2.972zM20.27 24.73a1.486 1.486 0 110 2.973 1.486 1.486 0 010-2.973zM35.135 24.73a1.486 1.486 0 110 2.972 1.486 1.486 0 010-2.972z" fill="#000"/><path d="M38.108 24.73a1.486 1.486 0 110 2.972 1.486 1.486 0 010-2.972z" fill="#000"/><path d="M41.081 24.73a1.486 1.486 0 110 2.973 1.486 1.486 0 010-2.973zM50 24.73a1.486 1.486 0 110 2.973 1.486 1.486 0 010-2.973zM58.919 24.73a1.486 1.486 0 110 2.973 1.486 1.486 0 010-2.973zM70.81 24.73a1.486 1.486 0 110 2.973 1.486 1.486 0 010-2.973zM82.703 24.73a1.486 1.486 0 110 2.973 1.486 1.486 0 010-2.973z" fill="#000"/><path d="M85.676 24.73a1.486 1.486 0 110 2.973 1.486 1.486 0 010-2.973z" fill="#000"/><path d="M88.649 24.73a1.486 1.486 0 110 2.973 1.486 1.486 0 010-2.973zM94.595 24.73a1.486 1.486 0 110 2.973 1.486 1.486 0 010-2.973z" fill="#000"/><path d="M97.567 24.73a1.486 1.486 0 110 2.973 1.486 1.486 0 010-2.973zM5.405 27.703a1.487 1.487 0 110 2.973 1.487 1.487 0 010-2.973zM17.297 27.703a1.487 1.487 0 110 2.973 1.487 1.487 0 010-2.973zM26.216 27.703a1.487 1.487 0 110 2.973 1.487 1.487 0 010-2.973z" fill="#000"/><path d="M29.19 27.703a1.487 1.487 0 11-.001 2.973 1.487 1.487 0 010-2.973z" fill="#000"/><path d="M32.162 27.703a1.487 1.487 0 110 2.973 1.487 1.487 0 010-2.973zM38.108 27.703a1.486 1.486 0 110 2.972 1.486 1.486 0 010-2.972zM44.054 27.703a1.487 1.487 0 110 2.973 1.487 1.487 0 010-2.973zM67.838 27.703a1.487 1.487 0 110 2.973 1.487 1.487 0 010-2.973zM73.784 27.703a1.486 1.486 0 110 2.972 1.486 1.486 0 010-2.972zM79.73 27.703a1.487 1.487 0 110 2.973 1.487 1.487 0 010-2.973zM91.622 27.703a1.487 1.487 0 110 2.973 1.487 1.487 0 010-2.973zM97.567 27.703a1.487 1.487 0 110 2.973 1.487 1.487 0 010-2.973zM5.405 30.676a1.486 1.486 0 110 2.973 1.486 1.486 0 010-2.973z" fill="#000"/><path d="M8.378 30.676a1.486 1.486 0 110 2.973 1.486 1.486 0 010-2.973zM14.324 30.676a1.486 1.486 0 110 2.972 1.486 1.486 0 010-2.972zM20.27 30.676a1.486 1.486 0 110 2.973 1.486 1.486 0 010-2.973zM29.19 30.676a1.486 1.486 0 110 2.973 1.486 1.486 0 010-2.973zM35.135 30.676a1.486 1.486 0 110 2.972 1.486 1.486 0 010-2.972z" fill="#000"/><path d="M38.108 30.676a1.486 1.486 0 110 2.972 1.486 1.486 0 010-2.972zM44.054 30.676a1.486 1.486 0 110 2.973 1.486 1.486 0 010-2.973zM50 30.676a1.486 1.486 0 110 2.973 1.486 1.486 0 010-2.973zM55.946 30.676a1.486 1.486 0 110 2.972 1.486 1.486 0 010-2.972z" fill="#000"/><path d="M58.919 30.676a1.486 1.486 0 110 2.973 1.486 1.486 0 010-2.973zM64.865 30.676a1.486 1.486 0 110 2.973 1.486 1.486 0 010-2.973z" fill="#000"/><path d="M67.838 30.676a1.486 1.486 0 110 2.973 1.486 1.486 0 010-2.973zM76.757 30.676a1.486 1.486 0 110 2.972 1.486 1.486 0 010-2.972zM91.622 30.676a1.486 1.486 0 110 2.973 1.486 1.486 0 010-2.973zM97.567 30.676a1.486 1.486 0 110 2.973 1.486 1.486 0 010-2.973zM11.351 33.649a1.486 1.486 0 110 2.972 1.486 1.486 0 010-2.972z" fill="#000"/><path d="M14.324 33.649a1.486 1.486 0 110 2.972 1.486 1.486 0 010-2.972z" fill="#000"/><path d="M17.297 33.649a1.487 1.487 0 110 2.973 1.487 1.487 0 010-2.973zM23.243 33.649a1.487 1.487 0 110 2.973 1.487 1.487 0 010-2.973z" fill="#000"/><path d="M26.216 33.649a1.487 1.487 0 110 2.973 1.487 1.487 0 010-2.973z" fill="#000"/><path d="M29.19 33.649a1.487 1.487 0 11-.001 2.973 1.487 1.487 0 010-2.973z" fill="#000"/><path d="M32.162 33.649a1.487 1.487 0 110 2.973 1.487 1.487 0 010-2.973zM73.784 33.649a1.486 1.486 0 110 2.972 1.486 1.486 0 010-2.972zM79.73 33.649a1.487 1.487 0 110 2.973 1.487 1.487 0 010-2.973zM88.649 33.649a1.487 1.487 0 110 2.973 1.487 1.487 0 010-2.973zM97.567 33.649a1.487 1.487 0 110 2.973 1.487 1.487 0 010-2.973zM2.432 36.622a1.486 1.486 0 110 2.973 1.486 1.486 0 010-2.973z" fill="#000"/><path d="M5.405 36.622a1.486 1.486 0 110 2.973 1.486 1.486 0 010-2.973z" fill="#000"/><path d="M8.378 36.622a1.486 1.486 0 110 2.973 1.486 1.486 0 010-2.973zM20.27 36.622a1.486 1.486 0 110 2.973 1.486 1.486 0 010-2.973zM79.73 36.622a1.486 1.486 0 110 2.973 1.486 1.486 0 010-2.973z" fill="#000"/><path d="M82.703 36.622a1.486 1.486 0 110 2.973 1.486 1.486 0 010-2.973zM97.567 36.622a1.486 1.486 0 110 2.973 1.486 1.486 0 010-2.973zM5.405 39.595a1.486 1.486 0 110 2.973 1.486 1.486 0 010-2.973zM11.351 39.595a1.486 1.486 0 110 2.972 1.486 1.486 0 010-2.972zM17.297 39.595a1.486 1.486 0 110 2.973 1.486 1.486 0 010-2.973zM32.162 39.595a1.486 1.486 0 110 2.973 1.486 1.486 0 010-2.973zM67.838 39.595a1.486 1.486 0 110 2.973 1.486 1.486 0 010-2.973zM73.784 39.595a1.486 1.486 0 110 2.972 1.486 1.486 0 010-2.972zM79.73 39.595a1.486 1.486 0 110 2.973 1.486 1.486 0 010-2.973z" fill="#000"/><path d="M82.703 39.595a1.486 1.486 0 110 2.973 1.486 1.486 0 010-2.973z" fill="#000"/><path d="M85.676 39.595a1.486 1.486 0 110 2.973 1.486 1.486 0 010-2.973zM97.567 39.595a1.486 1.486 0 110 2.973 1.486 1.486 0 010-2.973zM8.378 42.568a1.486 1.486 0 110 2.973 1.486 1.486 0 010-2.973zM14.324 42.568a1.486 1.486 0 110 2.972 1.486 1.486 0 010-2.972z" fill="#000"/><path d="M17.297 42.568a1.486 1.486 0 110 2.973 1.486 1.486 0 010-2.973z" fill="#000"/><path d="M20.27 42.568a1.486 1.486 0 110 2.973 1.486 1.486 0 010-2.973z" fill="#000"/><path d="M23.243 42.568a1.486 1.486 0 110 2.973 1.486 1.486 0 010-2.973z" fill="#000"/><path d="M26.216 42.568a1.486 1.486 0 110 2.973 1.486 1.486 0 010-2.973z" fill="#000"/><path d="M29.19 42.568a1.486 1.486 0 110 2.973 1.486 1.486 0 010-2.973z" fill="#000"/><path d="M32.162 42.568a1.486 1.486 0 110 2.973 1.486 1.486 0 010-2.973zM70.81 42.568a1.486 1.486 0 110 2.973 1.486 1.486 0 010-2.973zM79.73 42.568a1.486 1.486 0 110 2.973 1.486 1.486 0 010-2.973z" fill="#000"/><path d="M82.703 42.568a1.486 1.486 0 110 2.973 1.486 1.486 0 010-2.973z" fill="#000"/><path d="M85.676 42.568a1.486 1.486 0 110 2.973 1.486 1.486 0 010-2.973z" fill="#000"/><path d="M88.649 42.568a1.486 1.486 0 110 2.973 1.486 1.486 0 010-2.973z" fill="#000"/><path d="M91.622 42.568a1.486 1.486 0 110 2.973 1.486 1.486 0 010-2.973z" fill="#000"/><path d="M94.595 42.568a1.486 1.486 0 110 2.973 1.486 1.486 0 010-2.973zM8.378 45.54a1.487 1.487 0 110 2.974 1.487 1.487 0 010-2.974zM17.297 45.54a1.487 1.487 0 110 2.974 1.487 1.487 0 010-2.974zM23.243 45.54a1.487 1.487 0 110 2.974 1.487 1.487 0 010-2.974z" fill="#000"/><path d="M26.216 45.54a1.487 1.487 0 110 2.974 1.487 1.487 0 010-2.974zM32.162 45.54a1.487 1.487 0 110 2.974 1.487 1.487 0 010-2.974zM67.838 45.54a1.487 1.487 0 110 2.974 1.487 1.487 0 010-2.974z" fill="#000"/><path d="M70.81 45.54a1.487 1.487 0 110 2.974 1.487 1.487 0 010-2.974zM79.73 45.54a1.487 1.487 0 110 2.974 1.487 1.487 0 010-2.974zM88.649 45.54a1.487 1.487 0 110 2.974 1.487 1.487 0 010-2.974zM94.595 45.54a1.487 1.487 0 110 2.974 1.487 1.487 0 010-2.974zM5.405 48.514a1.486 1.486 0 110 2.972 1.486 1.486 0 010-2.972zM11.351 48.514a1.486 1.486 0 110 2.972 1.486 1.486 0 010-2.972zM17.297 48.514a1.486 1.486 0 110 2.972 1.486 1.486 0 010-2.972z" fill="#000"/><path d="M20.27 48.514a1.486 1.486 0 110 2.972 1.486 1.486 0 010-2.972z" fill="#000"/><path d="M23.243 48.514a1.486 1.486 0 110 2.972 1.486 1.486 0 010-2.972z" fill="#000"/><path d="M26.216 48.514a1.486 1.486 0 110 2.972 1.486 1.486 0 010-2.972z" fill="#000"/><path d="M29.19 48.514a1.486 1.486 0 110 2.972 1.486 1.486 0 010-2.972zM76.757 48.514a1.486 1.486 0 110 2.972 1.486 1.486 0 010-2.972z" fill="#000"/><path d="M79.73 48.514a1.486 1.486 0 110 2.972 1.486 1.486 0 010-2.972zM85.676 48.514a1.486 1.486 0 110 2.972 1.486 1.486 0 010-2.972z" fill="#000"/><path d="M88.649 48.514a1.486 1.486 0 110 2.972 1.486 1.486 0 010-2.972zM94.595 48.514a1.486 1.486 0 110 2.972 1.486 1.486 0 010-2.972z" fill="#000"/><path d="M97.567 48.514a1.486 1.486 0 110 2.972 1.486 1.486 0 010-2.972zM2.432 51.486a1.486 1.486 0 110 2.973 1.486 1.486 0 010-2.973zM8.378 51.486a1.486 1.486 0 110 2.973 1.486 1.486 0 010-2.973z" fill="#000"/><path d="M11.351 51.486a1.486 1.486 0 110 2.973 1.486 1.486 0 010-2.973zM17.297 51.486a1.486 1.486 0 110 2.973 1.486 1.486 0 010-2.973zM23.243 51.486a1.486 1.486 0 110 2.973 1.486 1.486 0 010-2.973z" fill="#000"/><path d="M26.216 51.486a1.486 1.486 0 110 2.973 1.486 1.486 0 010-2.973zM32.162 51.486a1.486 1.486 0 110 2.973 1.486 1.486 0 010-2.973zM70.81 51.486a1.486 1.486 0 110 2.973 1.486 1.486 0 010-2.973zM76.757 51.486a1.486 1.486 0 110 2.973 1.486 1.486 0 010-2.973zM91.622 51.486a1.486 1.486 0 110 2.973 1.486 1.486 0 010-2.973zM97.567 51.486a1.486 1.486 0 110 2.973 1.486 1.486 0 010-2.973zM2.432 54.46a1.486 1.486 0 110 2.972 1.486 1.486 0 010-2.973z" fill="#000"/><path d="M5.405 54.46a1.486 1.486 0 110 2.972 1.486 1.486 0 010-2.973z" fill="#000"/><path d="M8.378 54.46a1.486 1.486 0 110 2.972 1.486 1.486 0 010-2.973zM14.324 54.46a1.486 1.486 0 110 2.972 1.486 1.486 0 010-2.973zM20.27 54.46a1.486 1.486 0 110 2.972 1.486 1.486 0 010-2.973z" fill="#000"/><path d="M23.243 54.46a1.486 1.486 0 110 2.972 1.486 1.486 0 010-2.973z" fill="#000"/><path d="M26.216 54.46a1.486 1.486 0 110 2.972 1.486 1.486 0 010-2.973z" fill="#000"/><path d="M29.19 54.46a1.486 1.486 0 110 2.972 1.486 1.486 0 010-2.973z" fill="#000"/><path d="M32.162 54.46a1.486 1.486 0 110 2.972 1.486 1.486 0 010-2.973zM67.838 54.46a1.486 1.486 0 110 2.972 1.486 1.486 0 010-2.973zM76.757 54.46a1.486 1.486 0 110 2.972 1.486 1.486 0 010-2.973z" fill="#000"/><path d="M79.73 54.46a1.486 1.486 0 110 2.972 1.486 1.486 0 010-2.973zM91.622 54.46a1.486 1.486 0 110 2.972 1.486 1.486 0 010-2.973z" fill="#000"/><path d="M94.595 54.46a1.486 1.486 0 110 2.972 1.486 1.486 0 010-2.973z" fill="#000"/><path d="M97.567 54.46a1.486 1.486 0 110 2.972 1.486 1.486 0 010-2.973zM2.432 57.432a1.487 1.487 0 110 2.973 1.487 1.487 0 010-2.973z" fill="#000"/><path d="M5.405 57.432a1.487 1.487 0 110 2.973 1.487 1.487 0 010-2.973zM17.297 57.432a1.487 1.487 0 110 2.973 1.487 1.487 0 010-2.973zM23.243 57.432a1.487 1.487 0 110 2.973 1.487 1.487 0 010-2.973zM32.162 57.432a1.487 1.487 0 110 2.973 1.487 1.487 0 010-2.973zM67.838 57.432a1.487 1.487 0 110 2.973 1.487 1.487 0 010-2.973zM76.757 57.432a1.486 1.486 0 110 2.973 1.486 1.486 0 010-2.973z" fill="#000"/><path d="M79.73 57.432a1.487 1.487 0 110 2.973 1.487 1.487 0 010-2.973zM2.432 60.405a1.486 1.486 0 110 2.973 1.486 1.486 0 010-2.973z" fill="#000"/><path d="M5.405 60.405a1.486 1.486 0 110 2.973 1.486 1.486 0 010-2.973zM20.27 60.405a1.486 1.486 0 110 2.973 1.486 1.486 0 010-2.973zM26.216 60.405a1.486 1.486 0 110 2.973 1.486 1.486 0 010-2.973z" fill="#000"/><path d="M29.19 60.405a1.486 1.486 0 110 2.973 1.486 1.486 0 010-2.973z" fill="#000"/><path d="M32.162 60.405a1.486 1.486 0 110 2.973 1.486 1.486 0 010-2.973zM67.838 60.405a1.486 1.486 0 110 2.973 1.486 1.486 0 010-2.973z" fill="#000"/><path d="M70.81 60.405a1.486 1.486 0 110 2.973 1.486 1.486 0 010-2.973zM82.703 60.405a1.486 1.486 0 110 2.973 1.486 1.486 0 010-2.973zM97.567 60.405a1.486 1.486 0 110 2.973 1.486 1.486 0 010-2.973zM8.378 63.378a1.486 1.486 0 110 2.973 1.486 1.486 0 010-2.973zM14.324 63.378a1.486 1.486 0 110 2.973 1.486 1.486 0 010-2.973z" fill="#000"/><path d="M17.297 63.378a1.486 1.486 0 110 2.973 1.486 1.486 0 010-2.973zM26.216 63.378a1.486 1.486 0 110 2.973 1.486 1.486 0 010-2.973zM79.73 63.378a1.486 1.486 0 110 2.973 1.486 1.486 0 010-2.973zM94.595 63.378a1.486 1.486 0 110 2.973 1.486 1.486 0 010-2.973z" fill="#000"/><path d="M97.567 63.378a1.486 1.486 0 110 2.973 1.486 1.486 0 010-2.973zM2.432 66.351a1.487 1.487 0 110 2.973 1.487 1.487 0 010-2.973z" fill="#000"/><path d="M5.405 66.351a1.487 1.487 0 110 2.973 1.487 1.487 0 010-2.973zM14.324 66.351a1.486 1.486 0 110 2.973 1.486 1.486 0 010-2.973z" fill="#000"/><path d="M17.297 66.351a1.487 1.487 0 110 2.973 1.487 1.487 0 010-2.973z" fill="#000"/><path d="M20.27 66.351a1.487 1.487 0 110 2.973 1.487 1.487 0 010-2.973z" fill="#000"/><path d="M23.243 66.351a1.487 1.487 0 110 2.973 1.487 1.487 0 010-2.973zM29.19 66.351a1.487 1.487 0 11-.001 2.973 1.487 1.487 0 010-2.973z" fill="#000"/><path d="M32.162 66.351a1.487 1.487 0 110 2.973 1.487 1.487 0 010-2.973z" fill="#000"/><path d="M35.135 66.351a1.486 1.486 0 110 2.973 1.486 1.486 0 010-2.973z" fill="#000"/><path d="M38.108 66.351a1.486 1.486 0 110 2.973 1.486 1.486 0 010-2.973zM44.054 66.351a1.487 1.487 0 110 2.973 1.487 1.487 0 010-2.973zM50 66.351a1.487 1.487 0 110 2.973 1.487 1.487 0 010-2.973zM55.946 66.351a1.486 1.486 0 110 2.973 1.486 1.486 0 010-2.973z" fill="#000"/><path d="M58.919 66.351a1.487 1.487 0 110 2.973 1.487 1.487 0 010-2.973zM64.865 66.351a1.487 1.487 0 110 2.973 1.487 1.487 0 010-2.973zM76.757 66.351a1.486 1.486 0 110 2.973 1.486 1.486 0 010-2.973z" fill="#000"/><path d="M79.73 66.351a1.487 1.487 0 110 2.973 1.487 1.487 0 010-2.973z" fill="#000"/><path d="M82.703 66.351a1.487 1.487 0 110 2.973 1.487 1.487 0 010-2.973zM97.567 66.351a1.487 1.487 0 110 2.973 1.487 1.487 0 010-2.973zM5.405 69.324a1.486 1.486 0 110 2.973 1.486 1.486 0 010-2.973z" fill="#000"/><path d="M8.378 69.324a1.486 1.486 0 110 2.973 1.486 1.486 0 010-2.973zM17.297 69.324a1.486 1.486 0 110 2.973 1.486 1.486 0 010-2.973zM29.19 69.324a1.486 1.486 0 110 2.973 1.486 1.486 0 010-2.973zM38.108 69.324a1.486 1.486 0 110 2.973 1.486 1.486 0 010-2.973zM47.027 69.324a1.486 1.486 0 110 2.973 1.486 1.486 0 010-2.973z" fill="#000"/><path d="M50 69.324a1.486 1.486 0 110 2.973 1.486 1.486 0 010-2.973z" fill="#000"/><path d="M52.973 69.324a1.486 1.486 0 110 2.973 1.486 1.486 0 010-2.973zM61.892 69.324a1.486 1.486 0 110 2.973 1.486 1.486 0 010-2.973z" fill="#000"/><path d="M64.865 69.324a1.486 1.486 0 110 2.973 1.486 1.486 0 010-2.973zM76.757 69.324a1.486 1.486 0 110 2.973 1.486 1.486 0 010-2.973z" fill="#000"/><path d="M79.73 69.324a1.486 1.486 0 110 2.973 1.486 1.486 0 010-2.973z" fill="#000"/><path d="M82.703 69.324a1.486 1.486 0 110 2.973 1.486 1.486 0 010-2.973zM88.649 69.324a1.486 1.486 0 110 2.973 1.486 1.486 0 010-2.973zM94.595 69.324a1.486 1.486 0 110 2.973 1.486 1.486 0 010-2.973zM2.432 72.297a1.487 1.487 0 110 2.973 1.487 1.487 0 010-2.973zM8.378 72.297a1.487 1.487 0 110 2.973 1.487 1.487 0 010-2.973zM14.324 72.297a1.486 1.486 0 110 2.973 1.486 1.486 0 010-2.973z" fill="#000"/><path d="M17.297 72.297a1.487 1.487 0 110 2.973 1.487 1.487 0 010-2.973z" fill="#000"/><path d="M20.27 72.297a1.487 1.487 0 110 2.973 1.487 1.487 0 010-2.973z" fill="#000"/><path d="M23.243 72.297a1.487 1.487 0 110 2.973 1.487 1.487 0 010-2.973z" fill="#000"/><path d="M26.216 72.297a1.487 1.487 0 110 2.973 1.487 1.487 0 010-2.973z" fill="#000"/><path d="M29.19 72.297a1.487 1.487 0 11-.001 2.973 1.487 1.487 0 010-2.973z" fill="#000"/><path d="M32.162 72.297a1.487 1.487 0 110 2.973 1.487 1.487 0 010-2.973zM38.108 72.297a1.486 1.486 0 110 2.973 1.486 1.486 0 010-2.973zM44.054 72.297a1.487 1.487 0 110 2.973 1.487 1.487 0 010-2.973zM50 72.297a1.487 1.487 0 110 2.973 1.487 1.487 0 010-2.973z" fill="#000"/><path d="M52.973 72.297a1.487 1.487 0 110 2.973 1.487 1.487 0 010-2.973zM61.892 72.297a1.487 1.487 0 110 2.973 1.487 1.487 0 010-2.973zM73.784 72.297a1.486 1.486 0 110 2.973 1.486 1.486 0 010-2.973z" fill="#000"/><path d="M76.757 72.297a1.486 1.486 0 110 2.973 1.486 1.486 0 010-2.973z" fill="#000"/><path d="M79.73 72.297a1.487 1.487 0 110 2.973 1.487 1.487 0 010-2.973z" fill="#000"/><path d="M82.703 72.297a1.487 1.487 0 110 2.973 1.487 1.487 0 010-2.973z" fill="#000"/><path d="M85.676 72.297a1.487 1.487 0 110 2.973 1.487 1.487 0 010-2.973zM94.595 72.297a1.487 1.487 0 110 2.973 1.487 1.487 0 010-2.973zM26.216 75.27a1.486 1.486 0 110 2.973 1.486 1.486 0 010-2.973z" fill="#000"/><path d="M29.19 75.27a1.486 1.486 0 110 2.973 1.486 1.486 0 010-2.973zM38.108 75.27a1.486 1.486 0 110 2.973 1.486 1.486 0 010-2.973z" fill="#000"/><path d="M41.081 75.27a1.486 1.486 0 110 2.973 1.486 1.486 0 010-2.973z" fill="#000"/><path d="M44.054 75.27a1.486 1.486 0 110 2.973 1.486 1.486 0 010-2.973zM58.919 75.27a1.486 1.486 0 110 2.973 1.486 1.486 0 010-2.973z" fill="#000"/><path d="M61.892 75.27a1.486 1.486 0 110 2.973 1.486 1.486 0 010-2.973z" fill="#000"/><path d="M64.865 75.27a1.486 1.486 0 110 2.973 1.486 1.486 0 010-2.973zM70.81 75.27a1.486 1.486 0 110 2.973 1.486 1.486 0 010-2.973z" fill="#000"/><path d="M73.784 75.27a1.486 1.486 0 110 2.973 1.486 1.486 0 010-2.973zM85.676 75.27a1.486 1.486 0 110 2.973 1.486 1.486 0 010-2.973z" fill="#000"/><path d="M88.649 75.27a1.486 1.486 0 110 2.973 1.486 1.486 0 010-2.973z" fill="#000"/><path d="M91.622 75.27a1.486 1.486 0 110 2.973 1.486 1.486 0 010-2.973z" fill="#000"/><path d="M94.595 75.27a1.486 1.486 0 110 2.973 1.486 1.486 0 010-2.973z" fill="#000"/><path d="M97.567 75.27a1.486 1.486 0 110 2.973 1.486 1.486 0 010-2.973zM32.162 78.243a1.486 1.486 0 110 2.973 1.486 1.486 0 010-2.973zM44.054 78.243a1.486 1.486 0 110 2.973 1.486 1.486 0 010-2.973zM50 78.243a1.486 1.486 0 110 2.973 1.486 1.486 0 010-2.973z" fill="#000"/><path d="M52.973 78.243a1.486 1.486 0 110 2.973 1.486 1.486 0 010-2.973zM61.892 78.243a1.486 1.486 0 110 2.973 1.486 1.486 0 010-2.973zM67.838 78.243a1.486 1.486 0 110 2.973 1.486 1.486 0 010-2.973zM73.784 78.243a1.486 1.486 0 110 2.973 1.486 1.486 0 010-2.973zM79.73 78.243a1.486 1.486 0 110 2.973 1.486 1.486 0 010-2.973zM85.676 78.243a1.486 1.486 0 110 2.973 1.486 1.486 0 010-2.973zM91.622 78.243a1.486 1.486 0 110 2.973 1.486 1.486 0 010-2.973z" fill="#000"/><path d="M94.595 78.243a1.486 1.486 0 110 2.973 1.486 1.486 0 010-2.973zM32.162 81.216a1.486 1.486 0 110 2.973 1.486 1.486 0 010-2.973zM38.108 81.216a1.486 1.486 0 110 2.973 1.486 1.486 0 010-2.973z" fill="#000"/><path d="M41.081 81.216a1.486 1.486 0 110 2.973 1.486 1.486 0 010-2.973zM47.027 81.216a1.486 1.486 0 110 2.973 1.486 1.486 0 010-2.973z" fill="#000"/><path d="M50 81.216a1.486 1.486 0 110 2.973 1.486 1.486 0 010-2.973zM58.919 81.216a1.486 1.486 0 110 2.973 1.486 1.486 0 010-2.973z" fill="#000"/><path d="M61.892 81.216a1.486 1.486 0 110 2.973 1.486 1.486 0 010-2.973z" fill="#000"/><path d="M64.865 81.216a1.486 1.486 0 110 2.973 1.486 1.486 0 010-2.973z" fill="#000"/><path d="M67.838 81.216a1.486 1.486 0 110 2.973 1.486 1.486 0 010-2.973zM73.784 81.216a1.486 1.486 0 110 2.973 1.486 1.486 0 010-2.973zM85.676 81.216a1.486 1.486 0 110 2.973 1.486 1.486 0 010-2.973zM97.567 81.216a1.486 1.486 0 110 2.973 1.486 1.486 0 010-2.973zM29.19 84.19a1.486 1.486 0 110 2.972 1.486 1.486 0 010-2.973z" fill="#000"/><path d="M32.162 84.19a1.486 1.486 0 110 2.972 1.486 1.486 0 010-2.973z" fill="#000"/><path d="M35.135 84.19a1.486 1.486 0 110 2.972 1.486 1.486 0 010-2.973zM41.081 84.19a1.486 1.486 0 110 2.972 1.486 1.486 0 010-2.973z" fill="#000"/><path d="M44.054 84.19a1.486 1.486 0 110 2.972 1.486 1.486 0 010-2.973zM73.784 84.19a1.486 1.486 0 110 2.972 1.486 1.486 0 010-2.973z" fill="#000"/><path d="M76.757 84.19a1.486 1.486 0 110 2.972 1.486 1.486 0 010-2.973z" fill="#000"/><path d="M79.73 84.19a1.486 1.486 0 110 2.972 1.486 1.486 0 010-2.973z" fill="#000"/><path d="M82.703 84.19a1.486 1.486 0 110 2.972 1.486 1.486 0 010-2.973z" fill="#000"/><path d="M85.676 84.19a1.486 1.486 0 110 2.972 1.486 1.486 0 010-2.973zM26.216 87.162a1.486 1.486 0 110 2.973 1.486 1.486 0 010-2.973zM32.162 87.162a1.486 1.486 0 110 2.973 1.486 1.486 0 010-2.973z" fill="#000"/><path d="M35.135 87.162a1.486 1.486 0 110 2.973 1.486 1.486 0 010-2.973zM41.081 87.162a1.486 1.486 0 110 2.973 1.486 1.486 0 010-2.973z" fill="#000"/><path d="M44.054 87.162a1.486 1.486 0 110 2.973 1.486 1.486 0 010-2.973z" fill="#000"/><path d="M47.027 87.162a1.486 1.486 0 110 2.973 1.486 1.486 0 010-2.973z" fill="#000"/><path d="M50 87.162a1.486 1.486 0 110 2.973 1.486 1.486 0 010-2.973z" fill="#000"/><path d="M52.973 87.162a1.486 1.486 0 110 2.973 1.486 1.486 0 010-2.973z" fill="#000"/><path d="M55.946 87.162a1.486 1.486 0 110 2.973 1.486 1.486 0 010-2.973zM61.892 87.162a1.486 1.486 0 110 2.973 1.486 1.486 0 010-2.973z" fill="#000"/><path d="M64.865 87.162a1.486 1.486 0 110 2.973 1.486 1.486 0 010-2.973z" fill="#000"/><path d="M67.838 87.162a1.486 1.486 0 110 2.973 1.486 1.486 0 010-2.973z" fill="#000"/><path d="M70.81 87.162a1.486 1.486 0 110 2.973 1.486 1.486 0 010-2.973z" fill="#000"/><path d="M73.784 87.162a1.486 1.486 0 110 2.973 1.486 1.486 0 010-2.973zM79.73 87.162a1.486 1.486 0 110 2.973 1.486 1.486 0 010-2.973zM85.676 87.162a1.486 1.486 0 110 2.973 1.486 1.486 0 010-2.973zM91.622 87.162a1.486 1.486 0 110 2.973 1.486 1.486 0 010-2.973z" fill="#000"/><path d="M94.595 87.162a1.486 1.486 0 110 2.973 1.486 1.486 0 010-2.973zM35.135 90.135a1.486 1.486 0 110 2.973 1.486 1.486 0 010-2.973zM41.081 90.135a1.487 1.487 0 110 2.973 1.487 1.487 0 010-2.973zM47.027 90.135a1.487 1.487 0 110 2.973 1.487 1.487 0 010-2.973zM61.892 90.135a1.487 1.487 0 110 2.973 1.487 1.487 0 010-2.973zM70.81 90.135a1.487 1.487 0 110 2.973 1.487 1.487 0 010-2.973zM76.757 90.135a1.486 1.486 0 110 2.973 1.486 1.486 0 010-2.973zM82.703 90.135a1.487 1.487 0 110 2.973 1.487 1.487 0 010-2.973z" fill="#000"/><path d="M85.676 90.135a1.487 1.487 0 110 2.973 1.487 1.487 0 010-2.973zM91.622 90.135a1.487 1.487 0 110 2.973 1.487 1.487 0 010-2.973zM97.567 90.135a1.487 1.487 0 110 2.973 1.487 1.487 0 010-2.973zM32.162 93.108a1.486 1.486 0 110 2.973 1.486 1.486 0 010-2.973z" fill="#000"/><path d="M35.135 93.108a1.486 1.486 0 110 2.973 1.486 1.486 0 010-2.973zM47.027 93.108a1.486 1.486 0 110 2.973 1.486 1.486 0 010-2.973zM55.946 93.108a1.486 1.486 0 110 2.973 1.486 1.486 0 010-2.973z" fill="#000"/><path d="M58.919 93.108a1.486 1.486 0 110 2.973 1.486 1.486 0 010-2.973zM64.865 93.108a1.486 1.486 0 110 2.973 1.486 1.486 0 010-2.973zM70.81 93.108a1.486 1.486 0 110 2.973 1.486 1.486 0 010-2.973z" fill="#000"/><path d="M73.784 93.108a1.486 1.486 0 110 2.973 1.486 1.486 0 010-2.973z" fill="#000"/><path d="M76.757 93.108a1.486 1.486 0 110 2.973 1.486 1.486 0 010-2.973z" fill="#000"/><path d="M79.73 93.108a1.486 1.486 0 110 2.973 1.486 1.486 0 010-2.973z" fill="#000"/><path d="M82.703 93.108a1.486 1.486 0 110 2.973 1.486 1.486 0 010-2.973z" fill="#000"/><path d="M85.676 93.108a1.486 1.486 0 110 2.973 1.486 1.486 0 010-2.973z" fill="#000"/><path d="M88.649 93.108a1.486 1.486 0 110 2.973 1.486 1.486 0 010-2.973zM35.135 96.081a1.486 1.486 0 110 2.973 1.486 1.486 0 010-2.973zM41.081 96.081a1.486 1.486 0 110 2.973 1.486 1.486 0 010-2.973zM47.027 96.081a1.486 1.486 0 110 2.973 1.486 1.486 0 010-2.973zM58.919 96.081a1.486 1.486 0 110 2.973 1.486 1.486 0 010-2.973zM67.838 96.081a1.486 1.486 0 110 2.973 1.486 1.486 0 010-2.973zM73.784 96.081a1.486 1.486 0 110 2.973 1.486 1.486 0 010-2.973zM79.73 96.081a1.486 1.486 0 110 2.973 1.486 1.486 0 010-2.973z" fill="#000"/><path d="M82.703 96.081a1.486 1.486 0 110 2.973 1.486 1.486 0 010-2.973z" fill="#000"/><path d="M85.676 96.081a1.486 1.486 0 110 2.973 1.486 1.486 0 010-2.973zM94.595 96.081a1.486 1.486 0 110 2.973 1.486 1.486 0 010-2.973zM14.652.95H8.05c-3.217 0-5.942 2.125-6.814 5.03a6.894 6.894 0 00-.291 1.993v6.757c0 3.875 3.188 7.026 7.105 7.026h6.6c3.917 0 7.106-3.151 7.106-7.026V7.973c0-3.873-3.189-7.024-7.105-7.024zm3.983 13.78c0 2.153-1.787 3.904-3.984 3.904l-3.3.001h-3.3c-2.197 0-3.983-1.752-3.983-3.905V7.973c0-.672.174-1.306.48-1.859a3.96 3.96 0 011.218-1.336 4.018 4.018 0 012.285-.707h6.6c2.197 0 3.984 1.75 3.984 3.902v6.757zM91.95.948h-6.602c-3.217 0-5.942 2.125-6.813 5.03a6.895 6.895 0 00-.292 1.993v6.758c0 3.875 3.189 7.025 7.105 7.025l3.3.001h3.301c3.917 0 7.105-3.152 7.105-7.026V7.97c0-3.873-3.188-7.023-7.105-7.023zm3.983 13.78c0 2.153-1.787 3.905-3.985 3.905H85.35c-2.197 0-3.984-1.752-3.984-3.904V7.97c0-.672.174-1.305.481-1.858a3.96 3.96 0 011.217-1.337 4.017 4.017 0 012.285-.707h6.601c2.197 0 3.984 1.75 3.984 3.902v6.758zM14.652 78.245H8.05c-3.217 0-5.942 2.125-6.814 5.03a6.893 6.893 0 00-.291 1.993v6.758c0 3.875 3.188 7.026 7.105 7.026h6.6c3.917 0 7.106-3.151 7.106-7.026v-6.757c0-3.873-3.189-7.024-7.105-7.024zm3.983 13.781c0 2.153-1.787 3.904-3.984 3.904h-6.6c-2.197 0-3.983-1.752-3.983-3.904v-6.757c0-.673.174-1.306.48-1.86a3.96 3.96 0 011.218-1.335 4.018 4.018 0 012.285-.707h6.6c2.197 0 3.984 1.75 3.984 3.901v6.758z" fill="#000"/><path d="M9.331 15.81c-1.346 0-2.44-1.072-2.44-2.39V9.282c0-.412.107-.8.294-1.139A2.462 2.462 0 019.33 6.891h4.043c1.344 0 2.439 1.073 2.439 2.39v4.139c0 1.318-1.095 2.39-2.44 2.39h-4.04zM86.629 15.81c-1.346 0-2.441-1.072-2.441-2.39V9.282c0-.412.107-.8.294-1.139a2.462 2.462 0 012.145-1.252h4.043c1.344 0 2.44 1.073 2.44 2.39v4.139c0 1.318-1.095 2.39-2.44 2.39h-4.041zM9.331 93.108c-1.346 0-2.44-1.073-2.44-2.39v-4.14c0-.41.107-.798.294-1.137a2.462 2.462 0 012.145-1.252h4.043c1.344 0 2.439 1.072 2.439 2.39v4.138c0 1.318-1.095 2.391-2.44 2.391h-4.04z" fill="#000"/><path d="M49.994 62.682c7.04 0 12.745-5.706 12.745-12.745 0-7.039-5.706-12.745-12.745-12.745-7.039 0-12.745 5.706-12.745 12.745 0 7.04 5.706 12.745 12.745 12.745z" fill="#5A31F4"/><path d="M49.494 43.371c-2.708 0-4.06.915-5.144 1.647l-.032.022a.267.267 0 00-.081.354l1.071 1.834a.27.27 0 00.19.13.267.267 0 00.219-.059l.085-.07c.558-.464 1.452-1.085 3.616-1.255 1.204-.095 2.245.217 3.012.93.844.773 1.35 2.023 1.35 3.341 0 2.427-1.44 3.952-3.75 3.983-1.904-.011-3.183-.997-3.183-2.455 0-.774.352-1.278 1.038-1.782a.265.265 0 00.081-.339l-.962-1.807a.281.281 0 00-.28-.144.27.27 0 00-.106.037c-1.08.637-2.405 1.801-2.333 4.04.087 2.847 2.47 5.022 5.568 5.111h.367c3.682-.12 6.34-2.835 6.34-6.518 0-3.38-2.48-7-7.066-7z" fill="#fff"/></svg>