<svg xmlns="http://www.w3.org/2000/svg" fill="none" viewBox="0 0 130 130"><path fill="#5A31F4" d="M34.08 1.23a1.932 1.932 0 110 3.864 1.932 1.932 0 010-3.864z"/><path fill="#5A31F4" d="M37.947 1.23a1.933 1.933 0 110 3.865 1.933 1.933 0 010-3.865zm19.323 0a1.933 1.933 0 110 3.865 1.933 1.933 0 010-3.865z"/><path fill="#5A31F4" d="M61.135 1.23a1.932 1.932 0 110 3.864 1.932 1.932 0 010-3.864zm7.73 0a1.932 1.932 0 110 3.864 1.932 1.932 0 010-3.864z"/><path fill="#5A31F4" d="M72.73 1.23a1.933 1.933 0 110 3.865 1.933 1.933 0 010-3.865z"/><path fill="#5A31F4" d="M76.595 1.23a1.933 1.933 0 110 3.865 1.933 1.933 0 010-3.865zm11.594 0a1.933 1.933 0 110 3.865 1.933 1.933 0 010-3.865z"/><path fill="#5A31F4" d="M92.053 1.23a1.932 1.932 0 110 3.864 1.932 1.932 0 010-3.864z"/><path fill="#5A31F4" d="M95.92 1.23a1.933 1.933 0 110 3.865 1.933 1.933 0 010-3.865zM34.08 5.095a1.932 1.932 0 110 3.864 1.932 1.932 0 010-3.864zm11.596 0a1.932 1.932 0 110 3.864 1.932 1.932 0 010-3.864zm7.73 0a1.932 1.932 0 110 3.864 1.932 1.932 0 010-3.864z"/><path fill="#5A31F4" d="M57.27 5.095a1.933 1.933 0 110 3.865 1.933 1.933 0 010-3.865zm11.595 0a1.932 1.932 0 110 3.864 1.932 1.932 0 010-3.864z"/><path fill="#5A31F4" d="M72.73 5.095a1.933 1.933 0 110 3.865 1.933 1.933 0 010-3.865z"/><path fill="#5A31F4" d="M76.595 5.095a1.933 1.933 0 110 3.865 1.933 1.933 0 010-3.865zm7.73 0a1.933 1.933 0 110 3.865 1.933 1.933 0 010-3.865z"/><path fill="#5A31F4" d="M88.19 5.095a1.933 1.933 0 110 3.865 1.933 1.933 0 010-3.865z"/><path fill="#5A31F4" d="M92.053 5.095a1.932 1.932 0 110 3.864 1.932 1.932 0 010-3.864zM37.947 8.96a1.933 1.933 0 110 3.865 1.933 1.933 0 010-3.865zm7.728 0a1.933 1.933 0 110 3.865 1.933 1.933 0 010-3.865z"/><path fill="#5A31F4" d="M49.54 8.96a1.932 1.932 0 110 3.864 1.932 1.932 0 010-3.864z"/><path fill="#5A31F4" d="M53.405 8.96a1.932 1.932 0 110 3.864 1.932 1.932 0 010-3.864zm7.73 0a1.932 1.932 0 110 3.864 1.932 1.932 0 010-3.864zm27.054 0a1.933 1.933 0 110 3.865 1.933 1.933 0 010-3.865zm7.73 0a1.933 1.933 0 110 3.865 1.933 1.933 0 010-3.865zm-61.838 3.865a1.932 1.932 0 110 3.864 1.932 1.932 0 010-3.864zm11.594 0a1.932 1.932 0 110 3.864 1.932 1.932 0 010-3.864z"/><path fill="#5A31F4" d="M49.54 12.825a1.933 1.933 0 110 3.865 1.933 1.933 0 010-3.866z"/><path fill="#5A31F4" d="M53.405 12.825a1.933 1.933 0 110 3.865 1.933 1.933 0 010-3.866z"/><path fill="#5A31F4" d="M57.27 12.825a1.933 1.933 0 110 3.865 1.933 1.933 0 010-3.866z"/><path fill="#5A31F4" d="M61.135 12.825a1.932 1.932 0 110 3.864 1.932 1.932 0 010-3.864zm7.73 0a1.932 1.932 0 110 3.864 1.932 1.932 0 010-3.864z"/><path fill="#5A31F4" d="M72.73 12.825a1.932 1.932 0 110 3.864 1.932 1.932 0 010-3.864zm7.73 0a1.932 1.932 0 110 3.864 1.932 1.932 0 010-3.864zm7.73 0a1.932 1.932 0 110 3.864 1.932 1.932 0 010-3.864zm-54.11 3.864a1.932 1.932 0 110 3.865 1.932 1.932 0 010-3.865zm15.46 0a1.932 1.932 0 110 3.865 1.932 1.932 0 010-3.865z"/><path fill="#5A31F4" d="M53.405 16.69a1.933 1.933 0 110 3.865 1.933 1.933 0 010-3.866zm7.73 0a1.932 1.932 0 110 3.864 1.932 1.932 0 010-3.864zm7.73 0a1.932 1.932 0 110 3.864 1.932 1.932 0 010-3.864z"/><path fill="#5A31F4" d="M72.73 16.69a1.932 1.932 0 110 3.864 1.932 1.932 0 010-3.864zm7.73 0a1.932 1.932 0 110 3.864 1.932 1.932 0 010-3.864zm7.73 0a1.932 1.932 0 110 3.864 1.932 1.932 0 010-3.864zm7.73 0a1.932 1.932 0 110 3.864 1.932 1.932 0 010-3.864zm-61.84 3.863a1.933 1.933 0 11.001 3.864 1.933 1.933 0 010-3.863z"/><path fill="#5A31F4" d="M37.947 20.553a1.933 1.933 0 110 3.863 1.933 1.933 0 010-3.862v-.001z"/><path fill="#5A31F4" d="M41.81 20.553a1.933 1.933 0 110 3.863 1.933 1.933 0 010-3.862v-.001z"/><path fill="#5A31F4" d="M45.675 20.553a1.933 1.933 0 110 3.863 1.933 1.933 0 010-3.862v-.001zm7.73 0a1.933 1.933 0 110 3.863 1.933 1.933 0 010-3.862v-.001zm11.595 0a1.933 1.933 0 110 3.863 1.933 1.933 0 010-3.862v-.001zm15.46 0a1.933 1.933 0 110 3.863 1.933 1.933 0 010-3.862v-.001zm15.46 0a1.933 1.933 0 110 3.863 1.933 1.933 0 010-3.862v-.001zm-61.84 3.866a1.932 1.932 0 110 3.865 1.932 1.932 0 010-3.865zm7.73 0a1.932 1.932 0 110 3.865 1.932 1.932 0 010-3.865zm7.73 0a1.932 1.932 0 110 3.865 1.932 1.932 0 010-3.865zm7.73 0a1.932 1.932 0 110 3.865 1.932 1.932 0 010-3.865zm7.73 0a1.932 1.932 0 110 3.865 1.932 1.932 0 010-3.865zm7.73 0a1.932 1.932 0 110 3.865 1.932 1.932 0 010-3.865zm7.73 0a1.932 1.932 0 110 3.865 1.932 1.932 0 010-3.865zm7.73 0a1.932 1.932 0 110 3.865 1.932 1.932 0 010-3.865zm7.73 0a1.932 1.932 0 110 3.865 1.932 1.932 0 010-3.865zm-54.11 3.865a1.932 1.932 0 110 3.865 1.932 1.932 0 010-3.865z"/><path fill="#5A31F4" d="M45.675 28.284a1.932 1.932 0 110 3.864 1.932 1.932 0 010-3.864z"/><path fill="#5A31F4" d="M49.54 28.284a1.932 1.932 0 110 3.864 1.932 1.932 0 010-3.864z"/><path fill="#5A31F4" d="M53.405 28.284a1.933 1.933 0 110 3.866 1.933 1.933 0 010-3.866z"/><path fill="#5A31F4" d="M57.27 28.284a1.933 1.933 0 110 3.866 1.933 1.933 0 010-3.866z"/><path fill="#5A31F4" d="M61.135 28.284a1.932 1.932 0 110 3.865 1.932 1.932 0 010-3.865z"/><path fill="#5A31F4" d="M65 28.284a1.932 1.932 0 110 3.865 1.932 1.932 0 010-3.865zm7.73 0a1.932 1.932 0 110 3.864 1.932 1.932 0 010-3.864zm7.73 0a1.932 1.932 0 110 3.865 1.932 1.932 0 010-3.865z"/><path fill="#5A31F4" d="M84.325 28.284a1.933 1.933 0 110 3.865 1.933 1.933 0 010-3.865z"/><path fill="#5A31F4" d="M88.19 28.284a1.933 1.933 0 110 3.866 1.933 1.933 0 010-3.866z"/><path fill="#5A31F4" d="M92.053 28.284a1.932 1.932 0 110 3.865 1.932 1.932 0 010-3.865z"/><path fill="#5A31F4" d="M95.92 28.284a1.932 1.932 0 110 3.864 1.932 1.932 0 010-3.864zM14.755 32.15a1.932 1.932 0 110 3.864 1.932 1.932 0 010-3.864zm11.595 0a1.932 1.932 0 110 3.865 1.932 1.932 0 010-3.865zm19.325 0a1.932 1.932 0 110 3.864 1.932 1.932 0 010-3.864z"/><path fill="#5A31F4" d="M49.54 32.149a1.932 1.932 0 110 3.864 1.932 1.932 0 010-3.864z"/><path fill="#5A31F4" d="M53.405 32.149a1.933 1.933 0 110 3.865 1.933 1.933 0 010-3.865zm11.595 0a1.933 1.933 0 110 3.865 1.933 1.933 0 010-3.865zm11.595 0a1.933 1.933 0 110 3.865 1.933 1.933 0 010-3.865zm15.458 0a1.933 1.933 0 110 3.865 1.933 1.933 0 010-3.865zm15.461 0a1.932 1.932 0 110 3.863 1.932 1.932 0 010-3.863z"/><path fill="#5A31F4" d="M111.379 32.149a1.932 1.932 0 110 3.863 1.932 1.932 0 010-3.863z"/><path fill="#5A31F4" d="M115.244 32.149a1.932 1.932 0 110 3.863 1.932 1.932 0 010-3.863zm7.73 0a1.932 1.932 0 110 3.863 1.932 1.932 0 010-3.863z"/><path fill="#5A31F4" d="M126.837 32.149a1.934 1.934 0 011.367 3.299 1.934 1.934 0 01-3.299-1.367 1.93 1.93 0 011.932-1.932zM7.027 36.014a1.933 1.933 0 11.1 3.865 1.933 1.933 0 01-.1-3.865zm15.46 0a1.933 1.933 0 11.1 3.864 1.933 1.933 0 01-.1-3.864zm11.594 0a1.933 1.933 0 11.1 3.864 1.933 1.933 0 01-.1-3.864z"/><path fill="#5A31F4" d="M37.947 36.014a1.933 1.933 0 11.102 3.865 1.933 1.933 0 01-.103-3.865h.001z"/><path fill="#5A31F4" d="M41.81 36.014a1.933 1.933 0 11.1 3.864 1.933 1.933 0 01-.1-3.864zm7.73 0a1.932 1.932 0 110 3.864 1.932 1.932 0 010-3.864zm7.73 0a1.933 1.933 0 11.1 3.864 1.933 1.933 0 01-.1-3.864zm30.92 0a1.933 1.933 0 11.1 3.864 1.933 1.933 0 01-.1-3.864zm7.73 0a1.932 1.932 0 11-.001 3.864 1.932 1.932 0 010-3.864zm7.729 0a1.932 1.932 0 11.1 3.863 1.932 1.932 0 01-.1-3.863zm15.46 0a1.935 1.935 0 011.983 1.932 1.939 1.939 0 01-1.228 1.8 1.935 1.935 0 01-2.638-1.8 1.932 1.932 0 011.883-1.932zm7.728 0a1.932 1.932 0 11.1 3.863 1.932 1.932 0 01-.1-3.863zM7.027 39.879a1.932 1.932 0 110 3.865 1.932 1.932 0 010-3.865z"/><path fill="#5A31F4" d="M10.891 39.879a1.933 1.933 0 110 3.865 1.933 1.933 0 010-3.865zm7.73 0a1.932 1.932 0 110 3.863 1.932 1.932 0 010-3.863zm7.73 0a1.933 1.933 0 110 3.865 1.933 1.933 0 010-3.865zm11.596 0a1.933 1.933 0 110 3.865 1.933 1.933 0 010-3.865zm7.728 0a1.932 1.932 0 110 3.863 1.932 1.932 0 010-3.863z"/><path fill="#5A31F4" d="M49.54 39.879a1.932 1.932 0 110 3.863 1.932 1.932 0 010-3.863zm7.73 0a1.933 1.933 0 110 3.865 1.933 1.933 0 010-3.865zm7.73 0a1.933 1.933 0 110 3.865 1.933 1.933 0 010-3.865zm7.73 0a1.932 1.932 0 110 3.863 1.932 1.932 0 010-3.863z"/><path fill="#5A31F4" d="M76.595 39.879a1.933 1.933 0 110 3.865 1.933 1.933 0 010-3.865zm7.73 0a1.933 1.933 0 110 3.865 1.933 1.933 0 010-3.865z"/><path fill="#5A31F4" d="M88.19 39.879a1.932 1.932 0 110 3.865 1.932 1.932 0 010-3.865zm11.594 0a1.932 1.932 0 110 3.863 1.932 1.932 0 010-3.863zm19.325 0a1.932 1.932 0 110 3.863 1.932 1.932 0 010-3.863zm7.728 0a1.934 1.934 0 011.367 3.299 1.934 1.934 0 01-3.299-1.367 1.93 1.93 0 011.932-1.932zm-112.08 3.865a1.932 1.932 0 110 3.864 1.932 1.932 0 010-3.864z"/><path fill="#5A31F4" d="M18.621 43.744a1.932 1.932 0 110 3.863 1.932 1.932 0 010-3.863z"/><path fill="#5A31F4" d="M22.486 43.744a1.933 1.933 0 11.1 3.864 1.933 1.933 0 01-.1-3.864zm7.73 0a1.933 1.933 0 11.1 3.864 1.933 1.933 0 01-.1-3.864z"/><path fill="#5A31F4" d="M34.08 43.744a1.933 1.933 0 11.101 3.864 1.933 1.933 0 01-.1-3.864z"/><path fill="#5A31F4" d="M37.947 43.744a1.933 1.933 0 11.102 3.865 1.933 1.933 0 01-.103-3.865h.001z"/><path fill="#5A31F4" d="M41.81 43.744a1.933 1.933 0 11.101 3.864 1.933 1.933 0 01-.1-3.864zm54.11 0a1.932 1.932 0 110 3.863 1.932 1.932 0 010-3.863zm7.729 0a1.932 1.932 0 11.1 3.862 1.932 1.932 0 01-.1-3.862zm11.595 0a1.935 1.935 0 011.983 1.932 1.938 1.938 0 01-1.228 1.8 1.935 1.935 0 01-2.09-.45 1.936 1.936 0 010-2.699c.352-.361.831-.57 1.335-.583zm11.593 0a1.932 1.932 0 11.1 3.862 1.932 1.932 0 01-.1-3.862zM3.162 47.608a1.932 1.932 0 110 3.865 1.932 1.932 0 010-3.864z"/><path fill="#5A31F4" d="M7.027 47.609a1.932 1.932 0 110 3.865 1.932 1.932 0 010-3.865z"/><path fill="#5A31F4" d="M10.891 47.609a1.933 1.933 0 110 3.865 1.933 1.933 0 010-3.865zm15.46 0a1.933 1.933 0 110 3.865 1.933 1.933 0 010-3.865zm77.298 0a1.93 1.93 0 011.932 1.932 1.93 1.93 0 01-1.932 1.933 1.93 1.93 0 01-1.932-1.933 1.93 1.93 0 011.932-1.932z"/><path fill="#5A31F4" d="M107.514 47.609a1.932 1.932 0 110 3.863 1.932 1.932 0 010-3.863zm19.323 0a1.934 1.934 0 011.367 3.298 1.934 1.934 0 01-3.299-1.366 1.93 1.93 0 011.932-1.932zM7.027 51.473a1.932 1.932 0 110 3.865 1.932 1.932 0 010-3.864zm7.73 0a1.932 1.932 0 110 3.864 1.932 1.932 0 010-3.864zm7.73 0a1.933 1.933 0 110 3.866 1.933 1.933 0 010-3.865zm19.324 0a1.933 1.933 0 110 3.866 1.933 1.933 0 010-3.865zm46.378 0a1.933 1.933 0 110 3.866 1.933 1.933 0 010-3.865zm7.73 0a1.932 1.932 0 110 3.864 1.932 1.932 0 010-3.864zm7.73 0a1.93 1.93 0 011.932 1.933 1.93 1.93 0 01-1.932 1.932 1.93 1.93 0 01-1.932-1.932 1.93 1.93 0 011.932-1.932z"/><path fill="#5A31F4" d="M107.514 51.473a1.932 1.932 0 110 3.864 1.932 1.932 0 010-3.864z"/><path fill="#5A31F4" d="M111.379 51.473a1.932 1.932 0 110 3.864 1.932 1.932 0 010-3.864zm15.458 0a1.934 1.934 0 011.367 3.3 1.934 1.934 0 01-3.299-1.367 1.93 1.93 0 011.932-1.933zM10.891 55.338a1.933 1.933 0 110 3.866 1.933 1.933 0 010-3.866zm7.73 0a1.932 1.932 0 110 3.864 1.932 1.932 0 010-3.864z"/><path fill="#5A31F4" d="M22.486 55.338a1.932 1.932 0 110 3.865 1.932 1.932 0 010-3.865z"/><path fill="#5A31F4" d="M26.351 55.338a1.932 1.932 0 110 3.865 1.932 1.932 0 010-3.865z"/><path fill="#5A31F4" d="M30.216 55.338a1.932 1.932 0 110 3.865 1.932 1.932 0 010-3.865z"/><path fill="#5A31F4" d="M34.08 55.338a1.932 1.932 0 110 3.865 1.932 1.932 0 010-3.865z"/><path fill="#5A31F4" d="M37.947 55.338a1.933 1.933 0 110 3.866 1.933 1.933 0 010-3.866z"/><path fill="#5A31F4" d="M41.81 55.338a1.932 1.932 0 110 3.865 1.932 1.932 0 010-3.865zm50.243 0a1.932 1.932 0 110 3.865 1.932 1.932 0 010-3.865zm11.596 0a1.93 1.93 0 011.932 1.933 1.93 1.93 0 01-1.932 1.932 1.93 1.93 0 01-1.932-1.932 1.93 1.93 0 011.932-1.933z"/><path fill="#5A31F4" d="M107.514 55.338a1.932 1.932 0 110 3.864 1.932 1.932 0 010-3.864z"/><path fill="#5A31F4" d="M111.379 55.338a1.932 1.932 0 110 3.864 1.932 1.932 0 010-3.864z"/><path fill="#5A31F4" d="M115.244 55.338a1.932 1.932 0 110 3.864 1.932 1.932 0 010-3.864z"/><path fill="#5A31F4" d="M119.109 55.338a1.932 1.932 0 110 3.864 1.932 1.932 0 010-3.864z"/><path fill="#5A31F4" d="M122.974 55.338a1.932 1.932 0 110 3.864 1.932 1.932 0 010-3.864zM10.891 59.202a1.934 1.934 0 110 3.868 1.934 1.934 0 010-3.868zm11.595 0a1.934 1.934 0 110 3.868 1.934 1.934 0 010-3.868zm7.73 0a1.934 1.934 0 110 3.868 1.934 1.934 0 010-3.868z"/><path fill="#5A31F4" d="M34.08 59.202a1.932 1.932 0 110 3.865 1.932 1.932 0 010-3.865zm7.73 0a1.932 1.932 0 110 3.865 1.932 1.932 0 010-3.865zm46.38 0a1.932 1.932 0 110 3.865 1.932 1.932 0 010-3.865z"/><path fill="#5A31F4" d="M92.053 59.202a1.933 1.933 0 110 3.865 1.933 1.933 0 010-3.865zm11.596 0a1.935 1.935 0 011.367 3.3 1.945 1.945 0 01-1.367.566 1.934 1.934 0 010-3.866zm11.595 0a1.926 1.926 0 011.367.566 1.939 1.939 0 01.419 2.107 1.939 1.939 0 01-1.047 1.046 1.928 1.928 0 01-2.106-.42 1.93 1.93 0 010-2.733 1.932 1.932 0 011.367-.566zm7.729 0a1.93 1.93 0 011.786 1.193 1.918 1.918 0 010 1.48 1.923 1.923 0 01-1.046 1.046 1.933 1.933 0 11-.74-3.72zM7.026 63.068a1.932 1.932 0 110 3.864 1.932 1.932 0 010-3.864zm7.73 0a1.932 1.932 0 110 3.864 1.932 1.932 0 010-3.864zm7.73 0a1.932 1.932 0 110 3.864 1.932 1.932 0 010-3.864z"/><path fill="#5A31F4" d="M26.351 63.068a1.932 1.932 0 110 3.864 1.932 1.932 0 010-3.864z"/><path fill="#5A31F4" d="M30.216 63.068a1.932 1.932 0 110 3.863 1.932 1.932 0 010-3.863z"/><path fill="#5A31F4" d="M34.08 63.068a1.932 1.932 0 110 3.864 1.932 1.932 0 010-3.864z"/><path fill="#5A31F4" d="M37.947 63.068a1.932 1.932 0 110 3.864 1.932 1.932 0 010-3.864zm61.837 0a1.932 1.932 0 110 3.864 1.932 1.932 0 010-3.864z"/><path fill="#5A31F4" d="M103.649 63.068a1.932 1.932 0 110 3.864 1.932 1.932 0 010-3.864zm7.73 0A1.934 1.934 0 01113.311 65a1.933 1.933 0 01-3.864 0 1.933 1.933 0 011.932-1.932zm3.865 0A1.934 1.934 0 01117.176 65a1.933 1.933 0 01-3.864 0 1.93 1.93 0 011.932-1.932zm7.73 0A1.934 1.934 0 01124.905 65a1.932 1.932 0 11-1.931-1.932z"/><path fill="#5A31F4" d="M126.837 63.068a1.932 1.932 0 110 3.864 1.932 1.932 0 010-3.864zM3.162 66.932a1.932 1.932 0 110 3.865 1.932 1.932 0 010-3.865zm7.73 0a1.933 1.933 0 110 3.865 1.933 1.933 0 010-3.865z"/><path fill="#5A31F4" d="M14.756 66.932a1.933 1.933 0 110 3.865 1.933 1.933 0 010-3.865zm7.73 0a1.932 1.932 0 110 3.865 1.932 1.932 0 010-3.865zm7.73 0a1.932 1.932 0 110 3.865 1.932 1.932 0 010-3.865z"/><path fill="#5A31F4" d="M34.08 66.932a1.933 1.933 0 110 3.865 1.933 1.933 0 010-3.865zm7.73 0a1.933 1.933 0 110 3.865 1.933 1.933 0 010-3.865zm50.243 0a1.933 1.933 0 110 3.865 1.933 1.933 0 010-3.865zm7.731 0a1.934 1.934 0 011.367 3.299 1.934 1.934 0 01-3.3-1.367 1.932 1.932 0 011.933-1.932zm19.325 0a1.932 1.932 0 110 3.863 1.932 1.932 0 010-3.863zm7.728 0a1.934 1.934 0 011.367 3.299 1.934 1.934 0 01-3.299-1.367 1.93 1.93 0 011.932-1.932zM3.162 70.798a1.932 1.932 0 110 3.866 1.932 1.932 0 010-3.867v.001z"/><path fill="#5A31F4" d="M7.027 70.798a1.932 1.932 0 110 3.867 1.932 1.932 0 010-3.868z"/><path fill="#5A31F4" d="M10.891 70.798a1.932 1.932 0 110 3.867 1.932 1.932 0 010-3.868zm7.73 0a1.932 1.932 0 110 3.867 1.932 1.932 0 010-3.868zm7.73 0a1.932 1.932 0 110 3.867 1.932 1.932 0 010-3.868z"/><path fill="#5A31F4" d="M30.216 70.798a1.932 1.932 0 110 3.867 1.932 1.932 0 010-3.868z"/><path fill="#5A31F4" d="M34.08 70.798a1.932 1.932 0 110 3.867 1.932 1.932 0 010-3.868z"/><path fill="#5A31F4" d="M37.947 70.798a1.932 1.932 0 110 3.867 1.932 1.932 0 010-3.868z"/><path fill="#5A31F4" d="M41.81 70.798a1.932 1.932 0 110 3.867 1.932 1.932 0 010-3.868zm46.38 0a1.932 1.932 0 110 3.867 1.932 1.932 0 010-3.868zm11.594 0a1.932 1.932 0 110 3.867 1.932 1.932 0 010-3.868z"/><path fill="#5A31F4" d="M103.649 70.798a1.932 1.932 0 110 3.867 1.932 1.932 0 010-3.868zm15.46 0a1.934 1.934 0 011.931 1.932 1.932 1.932 0 11-1.931-1.933z"/><path fill="#5A31F4" d="M122.974 70.798a1.934 1.934 0 011.931 1.932 1.932 1.932 0 11-1.931-1.933z"/><path fill="#5A31F4" d="M126.837 70.798a1.932 1.932 0 110 3.867 1.932 1.932 0 010-3.868zM3.162 74.662a1.933 1.933 0 11.1 3.864 1.933 1.933 0 01-.1-3.864z"/><path fill="#5A31F4" d="M7.027 74.662a1.933 1.933 0 11.1 3.864 1.933 1.933 0 01-.1-3.864zm15.46 0a1.933 1.933 0 11.1 3.864 1.933 1.933 0 01-.1-3.864zm7.729 0a1.933 1.933 0 11.1 3.864 1.933 1.933 0 01-.1-3.864zm11.595 0a1.933 1.933 0 11.1 3.864 1.933 1.933 0 01-.1-3.864zm46.378 0a1.933 1.933 0 11.1 3.864 1.933 1.933 0 01-.1-3.864zm11.595 0a1.934 1.934 0 011.367 3.298 1.933 1.933 0 11-1.367-3.298z"/><path fill="#5A31F4" d="M103.649 74.662a1.932 1.932 0 11.1 3.862 1.932 1.932 0 01-.1-3.862zM3.162 78.526a1.932 1.932 0 110 3.865 1.932 1.932 0 010-3.865z"/><path fill="#5A31F4" d="M7.027 78.527a1.932 1.932 0 110 3.865 1.932 1.932 0 010-3.865zm19.324 0a1.933 1.933 0 110 3.865 1.933 1.933 0 010-3.865zm7.73 0a1.933 1.933 0 110 3.865 1.933 1.933 0 010-3.865z"/><path fill="#5A31F4" d="M37.947 78.527a1.933 1.933 0 110 3.865 1.933 1.933 0 010-3.865z"/><path fill="#5A31F4" d="M41.81 78.527a1.932 1.932 0 110 3.864 1.932 1.932 0 010-3.864zm46.38 0a1.932 1.932 0 110 3.864 1.932 1.932 0 010-3.864z"/><path fill="#5A31F4" d="M92.053 78.527a1.932 1.932 0 110 3.864 1.932 1.932 0 010-3.864zm15.461 0a1.932 1.932 0 110 3.863 1.932 1.932 0 010-3.863zm19.323 0a1.934 1.934 0 011.367 3.299 1.934 1.934 0 01-3.299-1.367 1.93 1.93 0 011.932-1.932zM10.891 82.39a1.933 1.933 0 110 3.866 1.933 1.933 0 010-3.866zm7.73 0a1.933 1.933 0 110 3.866 1.933 1.933 0 010-3.866z"/><path fill="#5A31F4" d="M22.486 82.391a1.932 1.932 0 110 3.865 1.932 1.932 0 010-3.865zm11.595 0a1.932 1.932 0 110 3.865 1.932 1.932 0 010-3.865zm69.568 0a1.93 1.93 0 011.932 1.933 1.93 1.93 0 01-3.298 1.366 1.93 1.93 0 010-2.733 1.93 1.93 0 011.366-.566zm19.324 0a1.932 1.932 0 11.001 3.865 1.932 1.932 0 01-.001-3.865z"/><path fill="#5A31F4" d="M126.837 82.391a1.934 1.934 0 011.367 3.3 1.934 1.934 0 01-3.299-1.367 1.93 1.93 0 011.932-1.933zM3.162 86.256a1.933 1.933 0 11.1 3.865 1.933 1.933 0 01-.1-3.865z"/><path fill="#5A31F4" d="M7.027 86.256a1.933 1.933 0 11.1 3.865 1.933 1.933 0 01-.1-3.865zm11.594 0a1.932 1.932 0 110 3.865 1.932 1.932 0 010-3.865z"/><path fill="#5A31F4" d="M22.486 86.256a1.933 1.933 0 11.1 3.865 1.933 1.933 0 01-.1-3.865z"/><path fill="#5A31F4" d="M26.351 86.256a1.933 1.933 0 11.1 3.865 1.933 1.933 0 01-.1-3.865z"/><path fill="#5A31F4" d="M30.216 86.256a1.933 1.933 0 11.1 3.865 1.933 1.933 0 01-.1-3.865zm7.731 0a1.933 1.933 0 11.102 3.865 1.933 1.933 0 01-.103-3.865h.001z"/><path fill="#5A31F4" d="M41.81 86.256a1.933 1.933 0 11.101 3.865 1.933 1.933 0 01-.1-3.865z"/><path fill="#5A31F4" d="M45.675 86.256a1.932 1.932 0 110 3.864 1.932 1.932 0 010-3.864z"/><path fill="#5A31F4" d="M49.54 86.256a1.932 1.932 0 110 3.865 1.932 1.932 0 010-3.865zm7.73 0a1.933 1.933 0 11.1 3.865 1.933 1.933 0 01-.1-3.865zm7.73 0a1.933 1.933 0 11.1 3.865 1.933 1.933 0 01-.1-3.865zm7.73 0a1.932 1.932 0 110 3.865 1.932 1.932 0 010-3.865z"/><path fill="#5A31F4" d="M76.595 86.256a1.933 1.933 0 11.1 3.865 1.933 1.933 0 01-.1-3.865zm7.73 0a1.933 1.933 0 11.1 3.865 1.933 1.933 0 01-.1-3.865zm15.46 0a1.934 1.934 0 011.366 3.3 1.934 1.934 0 01-3.3-1.367 1.932 1.932 0 011.933-1.933z"/><path fill="#5A31F4" d="M103.649 86.256a1.932 1.932 0 11.1 3.863 1.932 1.932 0 01-.1-3.863z"/><path fill="#5A31F4" d="M107.514 86.256a1.932 1.932 0 11.1 3.863 1.932 1.932 0 01-.1-3.863zm19.323 0a1.932 1.932 0 11.1 3.863 1.932 1.932 0 01-.1-3.863zM7.027 90.121a1.932 1.932 0 110 3.865 1.932 1.932 0 010-3.865z"/><path fill="#5A31F4" d="M10.891 90.121a1.933 1.933 0 110 3.866 1.933 1.933 0 010-3.866zm11.595 0a1.932 1.932 0 110 3.865 1.932 1.932 0 010-3.865zm15.461 0a1.932 1.932 0 110 3.865 1.932 1.932 0 010-3.865zm11.593 0a1.932 1.932 0 110 3.865 1.932 1.932 0 010-3.865zm11.595 0a1.932 1.932 0 110 3.865 1.932 1.932 0 010-3.865z"/><path fill="#5A31F4" d="M65 90.121a1.932 1.932 0 110 3.865 1.932 1.932 0 010-3.865z"/><path fill="#5A31F4" d="M68.865 90.121a1.932 1.932 0 110 3.865 1.932 1.932 0 010-3.865zm11.595 0a1.932 1.932 0 110 3.865 1.932 1.932 0 010-3.865z"/><path fill="#5A31F4" d="M84.325 90.121a1.933 1.933 0 110 3.865 1.933 1.933 0 010-3.865zm15.46 0a1.934 1.934 0 011.366 3.299 1.934 1.934 0 01-3.3-1.366 1.932 1.932 0 011.933-1.933z"/><path fill="#5A31F4" d="M103.649 90.121a1.93 1.93 0 011.932 1.933 1.93 1.93 0 01-1.932 1.932 1.93 1.93 0 01-1.932-1.932 1.93 1.93 0 011.932-1.933z"/><path fill="#5A31F4" d="M107.514 90.121a1.932 1.932 0 110 3.863 1.932 1.932 0 010-3.863zm7.73 0a1.932 1.932 0 110 3.863 1.932 1.932 0 010-3.863zm7.729 0a1.932 1.932 0 11.001 3.865 1.932 1.932 0 01-.001-3.865zM3.162 93.986a1.933 1.933 0 11.1 3.865 1.933 1.933 0 01-.1-3.865zm7.73 0a1.933 1.933 0 11.1 3.864 1.933 1.933 0 01-.1-3.864zm7.73 0a1.932 1.932 0 110 3.865 1.932 1.932 0 010-3.865z"/><path fill="#5A31F4" d="M22.486 93.986a1.933 1.933 0 11.1 3.864 1.933 1.933 0 01-.1-3.864z"/><path fill="#5A31F4" d="M26.351 93.986a1.933 1.933 0 11.1 3.864 1.933 1.933 0 01-.1-3.864z"/><path fill="#5A31F4" d="M30.216 93.986a1.933 1.933 0 11.1 3.864 1.933 1.933 0 01-.1-3.864z"/><path fill="#5A31F4" d="M34.08 93.986a1.933 1.933 0 11.101 3.864 1.933 1.933 0 01-.1-3.864z"/><path fill="#5A31F4" d="M37.947 93.986a1.933 1.933 0 11.102 3.865 1.933 1.933 0 01-.103-3.865h.001z"/><path fill="#5A31F4" d="M41.81 93.986a1.933 1.933 0 11.101 3.864 1.933 1.933 0 01-.1-3.864zm7.73 0a1.933 1.933 0 110 3.866 1.933 1.933 0 010-3.866zm7.73 0a1.933 1.933 0 11.1 3.864 1.933 1.933 0 01-.1-3.864zm7.73 0a1.933 1.933 0 11.1 3.864 1.933 1.933 0 01-.1-3.864z"/><path fill="#5A31F4" d="M68.865 93.986a1.933 1.933 0 11.1 3.864 1.933 1.933 0 01-.1-3.864zm11.595 0a1.933 1.933 0 11.1 3.864 1.933 1.933 0 01-.1-3.864zm15.46 0a1.933 1.933 0 11-.001 3.866 1.933 1.933 0 010-3.866z"/><path fill="#5A31F4" d="M99.784 93.986a1.934 1.934 0 011.367 3.299 1.934 1.934 0 01-3.3-1.367 1.932 1.932 0 011.933-1.932z"/><path fill="#5A31F4" d="M103.649 93.986a1.932 1.932 0 11.1 3.863 1.932 1.932 0 01-.1-3.863z"/><path fill="#5A31F4" d="M107.514 93.986a1.932 1.932 0 11.1 3.863 1.932 1.932 0 01-.1-3.863z"/><path fill="#5A31F4" d="M111.379 93.986a1.932 1.932 0 110 3.865 1.935 1.935 0 01-1.335-3.282c.352-.36.831-.57 1.335-.583zm11.595 0a1.938 1.938 0 011.399.548 1.942 1.942 0 01.584 1.384 1.939 1.939 0 01-1.228 1.8 1.938 1.938 0 01-2.09-.45 1.931 1.931 0 010-2.699c.352-.36.831-.57 1.335-.583zm-88.893 3.865a1.932 1.932 0 110 3.865 1.932 1.932 0 010-3.865z"/><path fill="#5A31F4" d="M37.947 97.851a1.933 1.933 0 110 3.866 1.933 1.933 0 010-3.866zm11.593 0a1.933 1.933 0 110 3.866 1.933 1.933 0 010-3.866z"/><path fill="#5A31F4" d="M53.405 97.851a1.933 1.933 0 110 3.866 1.933 1.933 0 010-3.866z"/><path fill="#5A31F4" d="M57.27 97.851a1.932 1.932 0 110 3.865 1.932 1.932 0 010-3.865zm19.325 0a1.933 1.933 0 110 3.866 1.933 1.933 0 010-3.866z"/><path fill="#5A31F4" d="M80.46 97.851a1.932 1.932 0 110 3.865 1.932 1.932 0 010-3.865z"/><path fill="#5A31F4" d="M84.325 97.851a1.933 1.933 0 110 3.865 1.933 1.933 0 010-3.865zm7.728 0a1.933 1.933 0 110 3.865 1.933 1.933 0 010-3.865z"/><path fill="#5A31F4" d="M95.92 97.851a1.933 1.933 0 11-.001 3.866 1.933 1.933 0 010-3.866zm15.459 0a1.932 1.932 0 110 3.863 1.932 1.932 0 010-3.863z"/><path fill="#5A31F4" d="M115.244 97.851a1.932 1.932 0 110 3.863 1.932 1.932 0 010-3.863z"/><path fill="#5A31F4" d="M119.109 97.851a1.932 1.932 0 110 3.863 1.932 1.932 0 010-3.863z"/><path fill="#5A31F4" d="M122.974 97.851a1.932 1.932 0 110 3.863 1.932 1.932 0 010-3.863z"/><path fill="#5A31F4" d="M126.837 97.851a1.934 1.934 0 011.367 3.299 1.936 1.936 0 01-2.733 0 1.93 1.93 0 010-2.733 1.932 1.932 0 011.366-.566zm-85.026 3.865a1.934 1.934 0 011.785 2.672 1.942 1.942 0 01-1.046 1.046 1.934 1.934 0 01-2.672-1.786 1.932 1.932 0 011.933-1.932zm15.46 0a1.934 1.934 0 011.785 2.672 1.942 1.942 0 01-1.046 1.046 1.934 1.934 0 01-2.672-1.786 1.932 1.932 0 011.932-1.932zm7.729 0a1.934 1.934 0 011.932 1.932A1.934 1.934 0 0165 105.581a1.934 1.934 0 01-1.932-1.933A1.932 1.932 0 0165 101.716z"/><path fill="#5A31F4" d="M68.865 101.716a1.934 1.934 0 011.785 2.672 1.944 1.944 0 01-1.046 1.046 1.934 1.934 0 01-2.672-1.786 1.931 1.931 0 011.933-1.932zm11.595 0a1.934 1.934 0 011.785 2.672 1.942 1.942 0 01-1.046 1.046 1.934 1.934 0 01-2.672-1.786 1.931 1.931 0 011.933-1.932zm7.73 0a1.934 1.934 0 011.785 2.672 1.944 1.944 0 01-1.046 1.046 1.934 1.934 0 01-2.672-1.786 1.931 1.931 0 011.932-1.932zm7.73 0a1.934 1.934 0 011.785 2.672 1.944 1.944 0 01-1.046 1.046 1.934 1.934 0 01-2.672-1.786 1.931 1.931 0 011.932-1.932zm7.729 0a1.938 1.938 0 011.366.566 1.933 1.933 0 11-1.366-.566zm7.73 0a1.93 1.93 0 011.932 1.932 1.938 1.938 0 01-.566 1.367 1.928 1.928 0 01-1.366.566 1.936 1.936 0 01-1.933-1.933 1.933 1.933 0 011.933-1.932zm7.73 0a1.933 1.933 0 110 3.866 1.933 1.933 0 010-3.866z"/><path fill="#5A31F4" d="M122.974 101.716a1.933 1.933 0 110 3.866 1.933 1.933 0 010-3.866zm-81.163 3.865a1.93 1.93 0 011.932 1.932 1.934 1.934 0 01-3.299 1.367 1.934 1.934 0 011.367-3.299zm7.73 0a1.93 1.93 0 011.932 1.932 1.934 1.934 0 01-3.3 1.367 1.934 1.934 0 011.367-3.299z"/><path fill="#5A31F4" d="M53.405 105.581a1.93 1.93 0 011.933 1.932 1.934 1.934 0 01-3.3 1.367 1.934 1.934 0 011.367-3.299zm7.73 0a1.93 1.93 0 011.933 1.932 1.934 1.934 0 11-1.933-1.932z"/><path fill="#5A31F4" d="M65 105.581a1.93 1.93 0 011.932 1.932A1.934 1.934 0 1165 105.581zm11.595 0a1.93 1.93 0 011.932 1.932 1.934 1.934 0 11-1.932-1.932z"/><path fill="#5A31F4" d="M80.46 105.581a1.93 1.93 0 011.932 1.932 1.934 1.934 0 01-3.299 1.367 1.934 1.934 0 011.367-3.299z"/><path fill="#5A31F4" d="M84.325 105.581a1.93 1.93 0 011.932 1.932 1.934 1.934 0 01-3.299 1.367 1.934 1.934 0 011.367-3.299z"/><path fill="#5A31F4" d="M88.19 105.581a1.93 1.93 0 011.932 1.932 1.934 1.934 0 01-3.299 1.367 1.934 1.934 0 011.366-3.299zm7.73 0a1.93 1.93 0 011.932 1.932 1.934 1.934 0 11-1.933-1.932zm15.459 0a1.93 1.93 0 011.932 1.932 1.931 1.931 0 11-1.932-1.932zm15.458 0a1.931 1.931 0 11.002 3.863 1.931 1.931 0 01-.002-3.863zm-88.89 3.866a1.933 1.933 0 010 3.864 1.934 1.934 0 01-1.366-3.299 1.93 1.93 0 011.366-.566v.001z"/><path fill="#5A31F4" d="M41.81 109.447a1.933 1.933 0 011.367 3.298 1.933 1.933 0 11-1.366-3.299v.001z"/><path fill="#5A31F4" d="M45.675 109.447a1.933 1.933 0 011.367 3.298 1.933 1.933 0 11-1.367-3.299v.001zm7.73 0a1.933 1.933 0 011.366 3.298 1.933 1.933 0 11-1.366-3.299v.001z"/><path fill="#5A31F4" d="M57.27 109.447a1.933 1.933 0 011.366 3.298 1.933 1.933 0 11-1.366-3.299v.001zm38.65 0a1.933 1.933 0 011.365 3.298 1.933 1.933 0 11-1.366-3.299v.001z"/><path fill="#5A31F4" d="M99.784 109.447a1.933 1.933 0 010 3.864 1.934 1.934 0 01-1.366-3.299 1.93 1.93 0 011.366-.566v.001z"/><path fill="#5A31F4" d="M103.649 109.447a1.933 1.933 0 011.366 3.298 1.933 1.933 0 11-1.366-3.299v.001z"/><path fill="#5A31F4" d="M107.514 109.447a1.933 1.933 0 011.366 3.298 1.933 1.933 0 11-1.366-3.299v.001z"/><path fill="#5A31F4" d="M111.379 109.447a1.935 1.935 0 011.932 1.932 1.933 1.933 0 11-1.932-1.933v.001zm-77.298 3.864a1.93 1.93 0 011.932 1.932 1.934 1.934 0 01-3.299 1.367 1.934 1.934 0 011.367-3.299zm7.73 0a1.93 1.93 0 011.932 1.932 1.934 1.934 0 01-3.299 1.367 1.934 1.934 0 011.367-3.299z"/><path fill="#5A31F4" d="M45.675 113.311a1.93 1.93 0 011.933 1.932 1.93 1.93 0 01-1.932 1.932 1.93 1.93 0 01-1.933-1.932 1.93 1.93 0 011.932-1.932zm7.73 0a1.93 1.93 0 011.933 1.932 1.93 1.93 0 01-1.933 1.932 1.93 1.93 0 01-1.932-1.932 1.93 1.93 0 011.932-1.932z"/><path fill="#5A31F4" d="M57.27 113.311a1.93 1.93 0 011.367 3.298 1.93 1.93 0 01-2.733 0 1.93 1.93 0 010-2.732 1.93 1.93 0 011.366-.566z"/><path fill="#5A31F4" d="M61.135 113.311a1.93 1.93 0 011.933 1.932 1.93 1.93 0 01-1.933 1.932 1.93 1.93 0 01-1.932-1.932 1.93 1.93 0 011.932-1.932z"/><path fill="#5A31F4" d="M65 113.311a1.93 1.93 0 011.932 1.932A1.93 1.93 0 0165 117.175a1.93 1.93 0 01-1.932-1.932A1.93 1.93 0 0165 113.311z"/><path fill="#5A31F4" d="M68.865 113.311a1.93 1.93 0 011.932 1.932 1.93 1.93 0 01-1.932 1.932 1.93 1.93 0 01-1.933-1.932 1.93 1.93 0 011.933-1.932z"/><path fill="#5A31F4" d="M72.73 113.311a1.93 1.93 0 011.366 3.298 1.93 1.93 0 01-2.733 0 1.93 1.93 0 010-2.732 1.93 1.93 0 011.367-.566zm7.73 0a1.93 1.93 0 011.932 1.932 1.93 1.93 0 01-1.932 1.932 1.93 1.93 0 01-1.933-1.932 1.93 1.93 0 011.933-1.932z"/><path fill="#5A31F4" d="M84.325 113.311a1.93 1.93 0 011.932 1.932 1.93 1.93 0 01-1.933 1.932 1.93 1.93 0 01-1.932-1.932 1.93 1.93 0 011.933-1.932z"/><path fill="#5A31F4" d="M88.19 113.311a1.93 1.93 0 011.366 3.298 1.93 1.93 0 01-2.733 0 1.93 1.93 0 010-2.732 1.93 1.93 0 011.366-.566z"/><path fill="#5A31F4" d="M92.053 113.311a1.93 1.93 0 011.932 1.932 1.93 1.93 0 01-1.932 1.932 1.93 1.93 0 01-1.367-3.298 1.93 1.93 0 011.367-.566z"/><path fill="#5A31F4" d="M95.92 113.311a1.93 1.93 0 011.366 3.298 1.93 1.93 0 01-2.733 0 1.93 1.93 0 010-2.732 1.93 1.93 0 011.366-.566zm7.729 0c.513 0 1.004.203 1.366.566a1.927 1.927 0 010 2.732 1.927 1.927 0 01-2.732 0 1.927 1.927 0 010-2.732 1.927 1.927 0 011.366-.566zm7.73 0a1.93 1.93 0 011.932 1.932 1.93 1.93 0 01-3.299 1.366 1.932 1.932 0 011.367-3.298zm7.73 0a1.93 1.93 0 011.932 1.932 1.932 1.932 0 11-1.932-1.932z"/><path fill="#5A31F4" d="M122.973 113.311a1.93 1.93 0 011.933 1.932 1.932 1.932 0 11-1.933-1.932zm-77.297 3.864a1.934 1.934 0 011.366 3.299 1.93 1.93 0 01-2.733 0 1.932 1.932 0 011.367-3.299zm7.73 0a1.948 1.948 0 011.398.548 1.933 1.933 0 11-1.399-.548zm7.73 0a1.948 1.948 0 011.398.548 1.933 1.933 0 11-1.399-.548zm19.324 0a1.948 1.948 0 011.399.548 1.933 1.933 0 11-1.4-.548zm11.593 0a1.948 1.948 0 011.4.548 1.933 1.933 0 11-1.4-.548zm7.731 0a1.936 1.936 0 011.933 1.933 1.933 1.933 0 11-1.933-1.933zm7.73 0a1.947 1.947 0 011.399.548 1.926 1.926 0 01.584 1.385 1.938 1.938 0 01-1.228 1.8 1.93 1.93 0 01-2.638-1.8 1.932 1.932 0 011.883-1.933z"/><path fill="#5A31F4" d="M111.379 117.175a1.947 1.947 0 011.399.548 1.926 1.926 0 01.584 1.385 1.938 1.938 0 01-1.228 1.8 1.934 1.934 0 11-.755-3.733zm7.73 0a1.95 1.95 0 011.399.548 1.926 1.926 0 01.584 1.385 1.938 1.938 0 01-1.228 1.8 1.931 1.931 0 01-2.09-.451 1.931 1.931 0 010-2.698 1.94 1.94 0 011.335-.584zm7.728 0a1.947 1.947 0 011.399.548 1.926 1.926 0 01.584 1.385 1.92 1.92 0 01-.584 1.384 1.923 1.923 0 01-1.399.548 1.93 1.93 0 01-1.883-1.932 1.932 1.932 0 011.883-1.933zm-85.026 3.865a1.934 1.934 0 011.366 3.299 1.93 1.93 0 01-2.733 0 1.932 1.932 0 011.367-3.299z"/><path fill="#5A31F4" d="M45.675 121.04a1.934 1.934 0 011.367 3.299 1.93 1.93 0 01-2.733 0 1.932 1.932 0 011.367-3.299zm15.46 0a1.934 1.934 0 011.367 3.299 1.93 1.93 0 01-2.733 0 1.931 1.931 0 011.366-3.299zm11.595 0a1.934 1.934 0 011.366 3.299 1.93 1.93 0 01-2.733 0 1.932 1.932 0 011.367-3.299z"/><path fill="#5A31F4" d="M76.595 121.04a1.934 1.934 0 011.932 1.933 1.932 1.932 0 11-1.932-1.933zm7.73 0a1.934 1.934 0 011.932 1.933 1.932 1.932 0 11-1.933-1.933zm7.728 0a1.934 1.934 0 011.933 1.933 1.932 1.932 0 11-1.933-1.933z"/><path fill="#5A31F4" d="M95.92 121.04a1.934 1.934 0 011.366 3.299 1.93 1.93 0 01-2.733 0 1.932 1.932 0 011.366-3.299z"/><path fill="#5A31F4" d="M99.784 121.04a1.936 1.936 0 011.933 1.933 1.933 1.933 0 11-1.933-1.933z"/><path fill="#5A31F4" d="M103.649 121.04a1.932 1.932 0 110 3.863 1.932 1.932 0 010-3.863z"/><path fill="#5A31F4" d="M107.514 121.04a1.933 1.933 0 11-.002 3.867 1.933 1.933 0 01.002-3.867z"/><path fill="#5A31F4" d="M111.379 121.04a1.933 1.933 0 11-.002 3.867 1.933 1.933 0 01.002-3.867z"/><path fill="#5A31F4" d="M115.244 121.04a1.933 1.933 0 11-.002 3.867 1.933 1.933 0 01.002-3.867zm-69.569 3.865a1.934 1.934 0 011.367 3.299 1.934 1.934 0 01-3.299-1.366 1.934 1.934 0 011.932-1.933zm7.73 0a1.934 1.934 0 011.367 3.299 1.934 1.934 0 01-3.3-1.366 1.934 1.934 0 011.933-1.933zm7.73 0a1.934 1.934 0 011.367 3.299 1.934 1.934 0 01-3.3-1.366 1.934 1.934 0 011.933-1.933zm15.46 0a1.934 1.934 0 011.366 3.299 1.934 1.934 0 01-3.299-1.366 1.934 1.934 0 011.933-1.933zm11.594 0a1.934 1.934 0 011.367 3.299 1.934 1.934 0 01-3.3-1.366 1.934 1.934 0 011.933-1.933zm7.73 0a1.934 1.934 0 011.367 3.299 1.934 1.934 0 01-3.3-1.366 1.934 1.934 0 011.933-1.933zm7.73 0a1.932 1.932 0 110 3.863 1.932 1.932 0 010-3.863z"/><path fill="#5A31F4" d="M107.514 124.905a1.933 1.933 0 11-.002 3.867 1.933 1.933 0 01.002-3.867z"/><path fill="#5A31F4" d="M111.379 124.905a1.933 1.933 0 11-.002 3.867 1.933 1.933 0 01.002-3.867zm11.595 0a1.933 1.933 0 11-.002 3.867 1.933 1.933 0 01.002-3.867zM19.048 1.235h-8.583c-4.182 0-7.725 2.763-8.858 6.54a8.962 8.962 0 00-.379 2.59v8.784c0 5.038 4.145 9.134 9.237 9.134h8.58c5.092 0 9.238-4.096 9.238-9.134v-8.784c0-5.035-4.146-9.131-9.237-9.131l.002.001zm5.178 17.914c0 2.799-2.324 5.075-5.18 5.075l-4.29.002h-4.29c-2.856 0-5.178-2.278-5.178-5.077v-8.784c0-.874.227-1.698.624-2.417a5.148 5.148 0 011.584-1.737 5.24 5.24 0 012.97-.919h8.58c2.856 0 5.18 2.275 5.18 5.073v8.784zm95.309-17.917h-8.583c-4.182 0-7.724 2.763-8.856 6.54a8.952 8.952 0 00-.38 2.59v8.786c0 5.037 4.146 9.132 9.236 9.132l4.29.002h4.292c5.092 0 9.236-4.098 9.236-9.134V10.36c0-5.035-4.144-9.13-9.236-9.13l.001.001zm5.178 17.915c0 2.798-2.323 5.076-5.181 5.076h-8.577c-2.856 0-5.179-2.278-5.179-5.075V10.36c0-.873.226-1.696.625-2.415a5.148 5.148 0 011.582-1.738 5.226 5.226 0 012.971-.92h8.581c2.856 0 5.179 2.276 5.179 5.073v8.785h-.001zM19.048 101.719h-8.583c-4.182 0-7.725 2.762-8.858 6.539a8.955 8.955 0 00-.379 2.59v8.786c0 5.037 4.145 9.134 9.237 9.134h8.58c5.092 0 9.238-4.097 9.238-9.134v-8.784c0-5.035-4.146-9.131-9.237-9.131h.002zm5.178 17.915c0 2.799-2.324 5.075-5.18 5.075h-8.58c-2.856 0-5.178-2.277-5.178-5.075v-8.784c0-.875.227-1.698.624-2.418a5.15 5.15 0 011.584-1.736 5.224 5.224 0 012.97-.919h8.58c2.856 0 5.18 2.275 5.18 5.071v8.786z"/><path fill="#5A31F4" d="M12.13 20.553c-1.75 0-3.172-1.394-3.172-3.107v-5.38c0-.535.14-1.04.383-1.48a3.2 3.2 0 012.788-1.628h5.256c1.747 0 3.17 1.395 3.17 3.107v5.381c0 1.713-1.423 3.107-3.171 3.107H12.13zm100.488 0c-1.75 0-3.174-1.394-3.174-3.107v-5.38c0-.535.14-1.04.383-1.48a3.195 3.195 0 012.788-1.628h5.256c1.747 0 3.172 1.395 3.172 3.107v5.381c0 1.713-1.423 3.107-3.172 3.107h-5.253zM12.13 121.04c-1.75 0-3.172-1.395-3.172-3.107v-5.382c0-.533.14-1.037.383-1.478a3.2 3.2 0 012.788-1.627h5.256c1.747 0 3.17 1.393 3.17 3.107v5.379c0 1.713-1.423 3.108-3.171 3.108H12.13zm52.862-39.553c9.152 0 16.569-7.418 16.569-16.569 0-9.15-7.418-16.568-16.569-16.568-9.15 0-16.568 7.417-16.568 16.568 0 9.152 7.418 16.569 16.568 16.569z"/><path fill="#fff" d="M64.342 56.382c-3.52 0-5.278 1.19-6.687 2.141l-.042.029a.347.347 0 00-.105.46l1.392 2.384a.35.35 0 00.247.17.346.346 0 00.285-.077l.11-.091c.726-.604 1.888-1.41 4.701-1.632 1.566-.123 2.919.282 3.916 1.21 1.097 1.004 1.755 2.63 1.755 4.343 0 3.155-1.872 5.137-4.875 5.177-2.475-.014-4.138-1.296-4.138-3.191 0-1.006.458-1.662 1.35-2.317a.344.344 0 00.105-.44l-1.25-2.35a.364.364 0 00-.503-.139c-1.404.829-3.126 2.342-3.032 5.252.113 3.701 3.21 6.529 7.238 6.645h.477c4.787-.156 8.242-3.686 8.242-8.474 0-4.394-3.224-9.1-9.186-9.1z"/></svg>