<svg fill="none" height="87" viewBox="0 0 90 87" width="90" xmlns="http://www.w3.org/2000/svg"><g fill="#000"><path d="m60.8229 86.2373c-4.6921-.1582-9.3575-.3956-14.0764-.4615-10.213-.1451-20.4261-.1847-30.6392-.3033-4.1039 0-8.19446-.1187-12.28503-.277-.79533-.0356-1.56439-.2916-2.21907-.7385-.31997-.1409-.6005-.3563-.817517-.6277-.21702-.2714-.364047-.5907-.428462-.9305s-.044294-.6899.058636-1.0203c.102929-.3305.285594-.6313.532316-.8768 2.593367-3.7453 5.213467-7.4775 8.020727-11.091 4.0104-5.1697 8.0207-10.2207 12.1113-15.3244.4222-.6198.9968-1.124 1.6701-1.4653.6732-.3413 1.4232-.5087 2.1798-.4865 5.1066.0923 10.1997 0 15.3731 0-1.4972-4.4707-3.235-8.8359-4.4114-13.333-1.8715-7.2402-3.8633-14.5859-2.326-22.1162 1.4838-7.20061 6.0957-12.10653 12.8599-15.03425 3.4574-1.534834 7.226-2.265772 11.0151-2.1364442 7.4593.3033222 12.5257 3.6794342 15.4399 10.6689942 2.7939 6.7259 2.1255 13.4517.8556 20.2699-1.016 5.473-3.85 10.1415-6.684 14.8232-1.4036 2.3607-3.0211 4.5763-4.7589 7.1611h1.8447c7.3256.1319 14.7047.211 21.9768.3956 3.4489.0792 4.3713 1.965 2.4463 4.8136-2.2859 3.4157-4.6119 6.7918-6.9513 10.1679-3.2885 4.7741-6.5636 9.5613-9.9323 14.2826-1.026 1.2812-2.1333 2.4969-3.3152 3.6398zm-11.5365-22.4195.4946.0924c1.3368-1.82 2.6736-3.6267 3.8633-5.473 4.6654-6.8709 9.9992-13.3462 13.5551-20.9029 3.8633-8.2425 5.3471-16.7883 1.8848-25.5978-2.1522-5.44662-5.4541-7.49075-11.1087-8.01826-3.9109-.33086-7.8324.50537-11.2557 2.4002-5.4675 2.90135-8.9966 7.26656-9.5848 13.62316-.5614 6.0269.7085 11.8691 2.3394 17.5531 2.0453 7.1215 4.9728 13.9924 7.5528 20.9557.6551 1.8199 1.4571 3.5739 2.2592 5.3674zm35.0506-6.3829-.1604-.5012h-4.358c-6.1091 0-12.2316 0-18.3407-.1318-.6233-.0637-1.2517.058-1.8043.3494-.5527.2914-1.0044.7392-1.297 1.2859-2.2057 3.1519-4.4783 6.2642-6.8578 9.2315-1.6977 2.1628-3.6227 1.9387-4.8124-.5011-1.4838-3.0596-2.8206-6.172-4.144-9.2975-.092-.3833-.315-.7237-.6315-.9639s-.7072-.3655-1.1064-.3549c-2.4864-.1055-2.5933-.0791-3.2483 2.2419-.1738.6199-.3209 1.3188-.4546 1.8859-.6044 2.4506-.2989 5.0338.861 7.2814 1.16 2.2475 3.0977 4.0108 5.462 4.9702 4.7441 1.9379 9.9272 2.589 15.0122 1.8859 6.1626-.7781 11.7503-3.5476 17.4852-5.7104.3672-.1642.6783-.4299.8956-.7649 2.5132-3.5607 5.0664-7.2402 7.4994-10.9064zm-66.1175 7.649c2.1736-.2415 4.3732.0945 6.3709.9733 1.9978.8788 3.7212 2.2684 4.9918 4.0249 2.5891 3.4115 3.8765 7.6141 3.636 11.8692h1.8314c9.3575.1186 18.6081.1055 27.8988.422 3.0211.1055 5.2134-.3693 6.5636-3.2838.7996-1.3759 1.7355-2.6703 2.7939-3.8641-.2535-.0226-.5085-.0226-.762 0-1.0026.3297-2.0319.6067-3.0077 1.0155-8.0038 3.4744-17.0499 3.8045-25.2921.9231-6.3631-2.11-11.63-8.1369-10.0927-16.4849.2406-1.3188.5614-2.6376.8689-4.0619-3.0479 0-5.9754 0-8.903 0-.1918.0108-.3794.0595-.5516.1434-.1723.0838-.3257.201-.451.3446-1.9116 2.5057-3.7831 5.0905-5.8952 7.9787zm10.8681 16.6564c.5213-6.3303-3.449-13.6627-11.4296-12.8715-.9503-.0074-1.8887.2089-2.7372.6309-.8486.422-1.583 1.0376-2.1421 1.7957-2.219 3.2838-4.63861 6.2907-6.96462 9.4162-.17232.3454-.30676.7079-.40104 1.0814h22.53826c.3475 0 .7085-.0396 1.1363-.0527z"/><path d="m63.9224 25.5186c.2406 3.6662-2.3126 7.1874-7.2587 9.2315-4.9462 2.0442-11.6034-.4747-13.5283-5.3543-2.5934-6.2511 2.0586-14.9683 8.7827-16.2739 1.1486-.1457 2.3156-.0468 3.4221.2901 5.7883 1.4243 8.3015 3.2311 8.5822 12.1066zm-4.0103-.7385c-.2273-5.539-.9224-6.1588-4.4382-7.3325-.9507-.3591-1.9766-.4808-2.9864-.3543-1.0099.1266-1.9724.4974-2.8019 1.0796-2.473 1.7276-4.0103 7.1874-2.9008 9.9569s5.4808 4.2465 8.6089 2.9277 4.8392-3.6531 4.5585-6.2774z"/></g></svg>