<svg fill="none" height="81" viewBox="0 0 114 81" width="114" xmlns="http://www.w3.org/2000/svg"><path d="m68.7926 57.9081c-.1109.5268-.1865 1.0605-.2264 1.5973 0 .4167.1568.8508.1742 1.2675.2265 3.6982-.3136 4.0107-3.4844 3.9065-1.5036.0439-3.0038.1656-4.4948.3647v.4687c1.4377.6165 2.8343 1.3241 4.1813 2.1183 1.1044.7577 2.0658 1.704 2.8397 2.7953.9059 1.2501.5226 2.2919-.5227 3.4725-2.086 2.0938-4.7471 3.5256-7.6481 4.1149-6.3272 1.8018-12.8797 2.6962-19.4601 2.6565-3.7282 0-7.4739.4861-11.1847.2778-2.9149.0747-5.8176-.4026-8.5541-1.4064-1.1009-.4967-2.0862-1.2163-2.893-2.113-.8068-.8968-1.4176-1.951-1.7934-3.0957-.5052-1.3196-.9582-2.6565-1.5157-4.2191-.4224.2623-.8139.5709-1.1673.9202-1.3588 1.7363-2.7177 3.4725-4.00695 5.3477-.13822.2521-.3253.4743-.55038.6538-.22508.1796-.48368.3128-.76081.3919-.27712.0791-.56726.1027-.85358.0692-.28631-.0335-.56312-.1233-.81434-.2642-1.56796-.6771-3.10107-1.4411-4.66903-2.1008-.26747-.0765-.515037-.2101-.725475-.3915-.210439-.1815-.378704-.4064-.493101-.6592-.1143965-.2528-.17217999-.5274-.16933373-.8047.00284625-.2773.06625403-.5507.18581573-.8011.644604-2.0488 1.324054-3.8892 2.038344-5.7296 2.45646-6.1811 4.86066-12.3795 7.43907-18.5084 3.34497-7.9173 6.82927-15.7825 10.24397-23.6651 1.2021-2.7606 1.4809-2.7606 4.6516-2.5176 6.3764.4341 12.7527.6945 19.1639 1.0244 1.5854 0 3.1707 0 4.7561.1216.9931 0 1.3938-.1737 1.1673-1.3196-.662-3.0731-1.1847-6.181-1.7422-9.2716-.1137-.2896-.1652-.5998-.1511-.9106.0141-.3107.0936-.615.2331-.8932.1396-.2783.3363-.5242.5772-.7219.241-.19769.5209-.34278.8217-.42588 2.6481-.89127 5.2962-1.79412 7.9443-2.70855 2.7003-.93757 5.3658-2.03141 8.1011-2.83008 4.3554-1.26747 8.7108-2.34394 13.1185-3.4725.6446-.173624 1.3066-.295163 1.9513-.468787.3793-.145745.7871-.2030745 1.1921-.1676038s.7965.1628008 1.1445.3722508c.3481.20945.6434.495467.8635.83617.22.3407.359.72705.4061 1.12949 1.0628 6.2505 2.2475 12.50099 3.0837 18.78619.5052 3.7677.4355 7.6222.6446 11.4419.1045 1.9099.784 2.2398 2.6307 1.7363 3.9547-1.0592 7.9617-2.0315 11.9517-3.0211 1.968-.4862 4.007-.8334 5.94-1.4411.838-.292 1.745-.329 2.604-.1064s1.633.6948 2.222 1.3565c1.202 1.1633.836 2.7085.418 4.1843-1.194 3.7662-3.753 6.954-7.177 8.9417-7.4221 4.7921-14.9308 9.4626-22.4396 14.1157-2.4913 1.5627-5.0871 2.9343-7.6481 4.3754-.3004.2232-.6443.3813-1.0096.464-.3653.0828-.744.0883-1.1116.0164-.3677-.072-.7161-.2199-1.0229-.4342s-.5651-.4903-.7584-.8102c-1.0976-1.3716-2.1777-2.778-3.2579-4.1843zm-35.0176 19.6022c4.5296-.3646 9.8433-.8334 15.1395-1.198 4.0929-.4469 8.1102-1.4215 11.9513-2.8995.9381-.4442 1.8019-1.0298 2.561-1.7363-.7888-.7907-1.6793-1.4738-2.6481-2.0314-2.9792-1.2501-5.9931-2.4134-9.0593-3.4725-3.4844-1.1112-6.8816-2.0314-10.3485-2.969-1.4635-.3993-2.0732-1.0938-1.6551-2.587.4655-1.7045 1.0476-3.3752 1.7422-5.0004 2.108-4.792 4.3206-9.4973 6.4112-14.2719 1.8989-4.3928 3.6237-8.8723 5.4878-13.2823.4007-.955.3136-1.4759-.8014-1.5453-2.7352-.191-5.453-.4514-8.1882-.5209-4.2683-.1389-8.5541 0-12.8398-.2083-2.0584-.1045-4.1041-.3833-6.115-.8334-.2043-.0902-.4258-.1349-.6492-.1308s-.4431.0567-.6439.1543-.3778.2377-.5186.4106c-.1407.1729-.2419.3743-.2964.5903-.6794 1.6147-1.4634 3.1947-2.1254 4.8267-2.3519 5.6949-4.7039 11.3898-6.9687 17.0847-3.1359 7.761-6.20213 15.5394-9.32062 23.3005-.41812 1.0591.12195 1.5973 1.02788 1.7362.36586 0 .88851-.4167 1.2021-.7639 2.36936-2.6739 4.68644-5.3824 6.96874-8.0389.8013-.8855 1.9163-1.3716 2.892-.3993.6162.6787 1.0322 1.5139 1.2021 2.4134.3135 1.7362.2264 3.4725.662 5.2087.784 3.1253 2.4216 5.5213 6.1498 5.6255 2.7004.0694 5.3485.3993 8.7806.5382zm75.453-43.7361-3.484.6771c-2.23.4515-4.495.8335-6.7072 1.3891-3.3799.8681-6.7074 1.9098-10.0872 2.7953-2.7352.7292-4.3729 0-4.8084-2.2918-.5277-2.7026-.8999-5.4329-1.115-8.1778-.3484-4.3232-.3484-8.6812-.8188-13.0045-.4829-3.4512-1.14-6.87591-1.9687-10.2612 0-.36461-.8188-.93757-1.115-.86812-3.7979.95493-7.5958 1.90987-11.3415 3.03843-4.3206 1.30219-8.5889 2.79536-12.8747 4.20169-3.1707 1.0244-3.1533 1.0244-2.4216 4.2365.4007 1.7362.8014 3.4725 1.115 5.3129.1568.8508-.2265 2.0488.2265 2.5349.453.4862 1.7422.4167 2.5784.6424.3725.0303.7307.1563 1.0396.3658.309.2095.5581.4953.7231.8294s.2403.7052.2183 1.077c-.0219.3717-.1402.7315-.3433 1.0441-.4356 1.007-1.0279 1.9446-1.3764 2.969-.2297.7051-.3127 1.4495-.2439 2.1876 0 .7813.3833 1.5453.4878 2.3266.2962 1.9793.4356 3.976.784 5.938 1.4301 6.3339 2.2757 12.7849 2.5262 19.2723 0 .9029.2439 1.7363 1.3589 1.5453 1.1149-.191 2.2474 0 2.4913-1.58.2237-1.5519.5438-3.0885.9582-4.6011.1286-.5719.4101-1.0985.8148-1.5239.4047-.4253.9173-.7336 1.4836-.892.5662-.1584 1.1649-.1611 1.7326-.0079.5677.1533 1.0831.4569 1.4916.8786 1.3072 1.1839 2.5081 2.4795 3.5889 3.8718.7492.9723 1.3589.9376 2.2823.3994 5.8014-3.4725 11.6725-6.7193 17.4217-10.2786 3.885-2.5002 7.6829-5.1741 11.3759-7.8826 1.074-.6802 1.987-1.5828 2.678-2.6464.692-1.0637 1.145-2.2633 1.329-3.5173zm-52.9964 25.384h.1916c-.209-1.5453-.4007-3.0906-.6272-4.6358-.6446-4.4969-1.2892-8.9938-1.986-13.4733 0-.3472-.3833-.6598-.5924-.9897-.259.2304-.4874.493-.6794.7813-1.0976 2.5176-2.108 5.0699-3.2405 7.5875-1.446 3.2467-2.9616 6.4588-4.4425 9.6882-.6969 1.5106-.5401 1.9446.9582 2.4134l8.676 2.587c1.1499.3473 1.7422 0 1.8293-1.2327.0348-.9029-.0871-1.8752-.0871-2.7259z" fill="#000"/></svg>