<svg fill="none" height="89" viewBox="0 0 82 89" width="82" xmlns="http://www.w3.org/2000/svg"><g fill="#000" stroke="#000" stroke-width=".5"><path d="m50.5926 1c-1.0365 0-1.4511 1.1336-1.4511 1.1336-.3916 3.08338-.8292 6.16676-1.1517 9.2615-.0469.2723-.0275.5517.0566.8152s.2306.5036.4273.7006.4381.3452.7044.4324c.2662.0873.5497.1111.8271.0696.3788-.0716.7218-.2675.9728-.5558s.3953-.6518.4092-1.0312c.1958-1.3944.3686-2.7887.4607-4.19436.1497-1.83642.1497-3.66152.1497-5.48661-.0893-.30816-.2714-.58247-.5222-.78683s-.5586-.32921-.8828-.3581z"/><path d="m47.2296 28.3772h5.3898c1.4742 0 2.3034.6801 2.1767 1.8024-.1267 1.1222-1.048 1.6097-2.1421 1.6324-1.8542 0-3.7199 0-5.7584 0l-.8407 8.3772c1.5663.4535 3.0404.8276 4.4685 1.3264 1.2072.3339 2.296.9924 3.1443 1.9014.8483.9091 1.4224 2.0328 1.6581 3.2451.355 1.4296.2842 2.9297-.204 4.3207-.4881 1.3911-1.3728 2.6145-2.5484 3.5238-2.3821 1.9045-5.3289 2.9947-8.3957 3.106-.4031 2.4146-.8062 4.7611-1.1517 7.119-.0341.381-.0918.7596-.1727 1.1336-.311 1.0203-.9674 1.6664-2.1191 1.4284-.2268-.0418-.4422-.1297-.6325-.2581s-.3513-.2944-.4727-.4875-.2005-.409-.2323-.634c-.0318-.2249-.0156-.4539.0476-.6723.2419-1.8251.5759-3.6275.8523-5.4412.1036-.6462.1497-1.3037.2303-2.0518-1.8427-.4421-3.6393-.8729-5.4244-1.3263-.8339-.1956-1.6504-.4572-2.4415-.7822-.2253-.0734-.4326-.1924-.6085-.3492s-.3166-.348-.4131-.5614c-.0965-.2135-.1466-.4444-.1472-.678s.0484-.4647.1438-.6786c.4261-.9862 1.3129-1.1336 2.3033-.8275 1.9348.5101 3.8812.9862 5.8275 1.4736.357.0794.7255.1134 1.3244.2154l1.048-10.2024c-.241-.0748-.4874-.1316-.737-.17-1.4329-.0325-2.8201-.5027-3.9694-1.3456s-2.0039-2.0167-2.4454-3.3588c-.3748-1.5049-.2809-3.086.2696-4.5376.5504-1.4516 1.532-2.7065 2.8168-3.6017 1.3577-.7876 2.803-1.4191 4.3073-1.8817.4135-.0763.7848-.2975 1.0453-.6226.2605-.3252.3924-.7323.3712-1.1458.1728-1.7344.4377-3.4008.668-5.1806 0-.2267.0921-.4534.1497-.6915.2534-1.0429.8753-1.7004 2.0385-1.5077.2405.0329.4714.1151.6777.2411.2063.1261.3835.2933.5202.4908.1367.1976.2299.4211.2735.6563.0436.2351.0367.4767-.0203.709-.1613 1.4397-.4607 2.8793-.6795 4.319-.0921.6122-.1267 1.213-.1958 1.9725zm-2.5682 25.4946c2.3035.0084 4.519-.8704 6.1729-2.4486 1.7045-1.8024 1.5778-5.0332-.3915-6.0648-1.5465-.6865-3.1444-1.255-4.7795-1.7003-.357 3.6275-.6795 6.9149-1.0019 10.2137zm-2.1306-13.6032.7486-7.5838c-3.6163.8162-5.3898 2.7547-4.9752 5.2826.2648 1.553 1.8196 2.4712 4.2266 2.2785z"/><path d="m18.3953 41.9114c-1.4972-.4647-2.7755-.8502-4.0309-1.2696-2.1114-.7104-4.2151-1.4472-6.31112-2.2105-.6306-.1963-1.21981-.5036-1.73902-.9069-.18057-.139-.32895-.3144-.43522-.5143-.10628-.2-.16802-.4199-.1811-.6452s.0228-.4507.10525-.6613c.08245-.2105.20957-.4014.37287-.5598.28858-.2204.62255-.3761.9786-.4564s.72561-.0831 1.08289-.0083c3.20165 1.0315 6.34575 2.2672 9.50125 3.4008.6342.1579 1.2144.4787 1.6815.9295.1784.2596.3002.5528.3577.8611s.0494.6249-.0238.93c-.2073.4874-.9328.7708-1.3589 1.1109z"/><path d="m12.0825 52.6464c.5733-.1193 1.1657-.1193 1.739 0 .5989.2834 1.4281.9295 1.4165 1.417-.0423.3731-.1782.7299-.3952 1.0386-.2171.3087-.5087.5594-.8486.7298-1.2065.2711-2.4368.4267-3.6738.4648-2.59124.3174-5.19401.6801-7.79678.9862-1.15167.1474-2.049976-.2041-2.165143-1.4624-.115167-1.2582.702523-1.8137 1.808123-1.9497 3.29377-.4308 6.56452-.8162 9.9159-1.2243z"/><path d="m57.1803 84.4769c-1.1517-.0794-1.693-.8729-1.9694-1.9725-.7025-2.8113-1.4396-5.6679-2.1536-8.4339-.1241-.403-.209-.8168-.2534-1.2356-.0691-.9636.3686-1.8138 1.3245-1.8251.3766.0111.7447.1131 1.072.2969s.6038.4438.8052.7573c.9098 2.4032 1.6008 4.8972 2.3033 7.3684.2879.9295.4722 1.8931.7486 2.834.0872.2737.1032.5645.0464.8459-.0568.2813-.1845.5441-.3714.7642-.1869.22-.427.3904-.6982.4953-.2713.1049-.5649.141-.854.1051z"/><path d="m16.2979 15.3065c.4598.1848.9095.3929 1.3474.6235 2.7026 1.7306 5.3898 3.4764 8.0617 5.2372.221.0971.419.2386.5812.4153.1623.1767.2853.3849.3612.6111s.1029.4655.0795.7025c-.0235.2371-.0969.4668-.2157.6743-.0982.2198-.2458.4148-.4316.5703s-.4051.2674-.6412.3275c-.2362.06-.4831.0665-.7222.019s-.4641-.1478-.6581-.2933c-2.8907-1.8024-5.7583-3.6162-8.5569-5.5773-.2437-.2834-.4207-.6163-.5183-.975-.0975-.3587-.1132-.7341-.046-1.0995.0576-.4761.8637-.8275 1.359-1.2356z"/><path d="m75.0325 48.905c-1.7621-.0907-3.5357.1927-5.2747 0-1.4396-.1927-2.1651-1.1336-1.8542-2.1765.3801-1.2697 1.382-1.2697 2.5222-1.2356 2.43.0793 4.86 0 7.29 0 .7053-.0978 1.424-.0279 2.0961.204.3253.1843.61.4306.8374.7245.2275.2939.393.6295.487.9872.1152.9523-.6795 1.5191-1.6699 1.5417-1.4742 0-2.9598 0-4.4339 0z"/><path d="m71.9934 29.328c-.6204-.0148-1.2395-.064-1.8542-.1473-1.025-.1814-1.8197-.7029-1.739-1.8591-.0077-.252.042-.5025.1454-.7331.1035-.2306.258-.4355.4524-.5996.1944-.1642.4236-.2834.6709-.349s.5064-.0759.7582-.0301c2.8331.5102 5.482-.3627 8.1999-.6915 1.4396-.1813 2.5106.4308 2.6488 1.4964s-.6103 1.7797-2.2112 1.9951c-2.3609.3174-4.7103.6688-7.0597 1.0089z"/><path d="m76.8505 62.8249c0 1.5077-.9674 2.3465-2.1421 2.0405-3.4291-.9354-6.5321-2.7781-8.9716-5.328-.1607-.1434-.2891-.3184-.377-.5136-.0878-.1952-.1332-.4064-.1332-.62 0-.2135.0454-.4247.1332-.6199.0879-.1952.2163-.3702.377-.5136.1502-.1903.3399-.3468.5565-.4589.2166-.1122.4551-.1774.6994-.1914.2444-.0139.4889.0237.7172.1105.2284.0867.4352.2205.6067.3924 2.0309 2.0748 4.545 3.6312 7.3246 4.5344.5413.2267.9559.8955 1.2093 1.1676z"/><path d="m9.8265 81.7108c-.49522-.4308-1.25532-.7708-1.35897-1.2583-.07039-.3475-.06575-.7058.01361-1.0514.07936-.3457.23168-.6711.44705-.9551 1.05074-1.0244 2.18301-1.9645 3.38591-2.8113 1.2899-.9635 2.6143-1.8931 3.9733-2.7546.1983-.1756.4328-.3069.6874-.3851s.5234-.1015.7879-.0681c.2646.0334.5187.1225.7451.2614.2264.1388.4196.3241.5666.5432.6219.8389.2419 1.7457-.8868 2.5846-2.3033 1.6891-4.526 3.4008-6.8064 5.1239-.4974.2957-1.0172.5534-1.5547.7708z"/><path d="m75.2861 9.8195c-.2731.4364-.6243.8205-1.0365 1.1336-2.5107 1.4397-5.0559 2.8113-7.6241 4.1603-.2028.151-.4358.258-.6837.3137-.2478.0558-.5049.0592-.7542.0099s-.4851-.1501-.6919-.2958c-.2067-.1457-.3797-.3329-.5075-.5493-.1419-.2095-.2347-.4475-.2718-.6967-.037-.2492-.0173-.5034.0576-.7442s.2033-.4622.3757-.6482c.1725-.186.3848-.332.6216-.4274 2.6143-1.4397 5.2516-2.8567 7.935-4.14901 1.3129-.56679 2.5798.26073 2.5798 1.89311z"/><path d="m36.3814 12.72c-.288.2948-.7371 1.1336-1.2323 1.1336-.3762.0103-.75-.0616-1.0945-.2106-.3445-.1489-.6512-.3712-.8979-.6509-.8248-1.4143-1.5557-2.8797-2.1882-4.38701-.4837-1.03158-.8868-2.08582-1.3474-3.1174-.1177-.19259-.1924-.40758-.2193-.63072-.0268-.22315-.0053-.44938.0633-.66371.0686-.21432.1827-.41187.3346-.57957.152-.1677.3384-.30172.5469-.39319.1962-.12371.4163-.20595.6464-.2415.2302-.03556.4653-.02364.6906.03498.2252.05862.4356.16267.6178.30555s.3323.32147.4407.52445c1.2783 2.66395 2.3839 5.40726 3.5586 8.11652.0532.2498.0803.5043.0807.7595z"/><path d="m36.7859 88.3553c-1.4856.2834-1.8196-.5895-1.6468-1.7231.4069-2.5921.8676-5.1805 1.382-7.7651.0169-.2514.0912-.4958.2173-.7151.1261-.2192.3007-.4077.5109-.5515.2102-.1437.4506-.239.7033-.2788.2528-.0398.5114-.023.7566.049 1.2208.2948 1.4051 1.2243 1.1517 2.3352-.4491 2.3919-.9444 4.7952-1.2783 7.2097-.1267 1.213-.6104 1.6891-1.7967 1.4397z"/></g></svg>