<svg xmlns="http://www.w3.org/2000/svg" viewBox="0 0 38 44"><path d="M14.501 34.706c-.128-1.026.053-1.423.843-1.856.511-.279 1.218-.197 1.579.247.643.79 1.248 1.611 1.874 2.415.297.382.606.756.967 1.206.027-.507.091-.949.066-1.384a519.379 519.379 0 00-.477-7.262c-.013-.176-.251-.415-.437-.478-2.878-.963-5.254-2.647-7.247-4.871-.603-.673-1.194-1.396-1.599-2.195-.829-1.637-1.043-3.348.068-5.004.867-1.293 2.526-1.945 4.042-1.692 1.599.267 2.829 1.105 3.782 2.345.584.76 1.166 1.543 1.6 2.392a22.617 22.617 0 011.838 4.89c.139.562.279 1.125.421 1.689 1.32.087 2.142-.602 2.516-1.763.683-2.121.406-4.243.094-6.367a14.004 14.004 0 00-2.41-6.062 10.558 10.558 0 00-4.528-3.689c-1.273-.548-2.594-.931-4-.96-1.176-.026-1.869-1.317-1.186-2.272a.868.868 0 00.072-.166l.784-.452c.221-.003.442-.018.663-.008a12.81 12.81 0 013.751.742 14.006 14.006 0 015.436 3.467c.431.445.838.911 1.255 1.369l1.828 3.166c.14.403.315.797.415 1.209.341 1.406.757 2.804.956 4.233.325 2.353.463 4.724-.477 7.028a5.547 5.547 0 01-2.14 2.62 5.211 5.211 0 01-2.416.811l.396 8.86c1.488-1.352 3.092-2.769 4.644-4.24.687-.651 1.672-.482 2.067-.052.624.678.593 1.493-.092 2.125l-6.318 5.816c-.737.681-1.463 1.377-2.194 2.065l-.261.151c-.744-1.001-1.476-2.01-2.234-3.001-.818-1.079-1.664-2.142-2.51-3.205-.385-.486-.786-.96-1.179-1.439zm4.035-10.403a3.326 3.326 0 00-.063-.42c-.594-1.995-1.257-3.96-2.555-5.632-.52-.67-1.103-1.275-1.971-1.486-1.069-.265-1.768.336-1.613 1.413.057.393.165.817.387 1.134.478.69 1.007 1.343 1.583 1.953 1.196 1.257 2.603 2.246 4.232 3.038z"/></svg>