<svg fill="none" height="61" viewBox="0 0 57 61" width="57" xmlns="http://www.w3.org/2000/svg"><path d="m26.144 46.2787c-3.4004 4.4968-7.4175 8.1307-11.2526 11.9369-.4494.4586-.9269.8887-1.4297 1.288-1.1271.8662-2.9255.7277-3.7756-.3333-.29464-.3687-.54259-.9209-.51683-1.3717.0452-1.1937.20698-2.38.48302-3.5421 1.18021-4.5871 2.42791-9.1564 3.67091-13.7273.1417-.5233 0-.7954-.4943-.966-3.89953-1.3798-7.16631-3.9366-10.79697-5.8188-1.199482-.6214-2.0930595-1.5504-2.02865765-3.1025s.66655965-2.4956 2.18644765-2.9544c2.52938-.7632 5.01852-1.7518 7.74755-1.4893.17173-.003.34273-.0235.51033-.0612-1.01911-1.4877-2.00929-2.8981-2.96727-4.3375-.68427-1.0224-1.33151-2.0705-1.98519-3.1122-.56626-.9203-.81984-1.999-.72291-3.0752.08051-1.288.89519-2.1542 2.17035-2.2541 1.5231-.1207 2.93672.0918 4.30522.9178 1.9128 1.156 3.9302 2.1365 6.0538 3.2716 0-.5056 0-.8195 0-1.1351.0821-3.7466.1047-7.49639.2866-11.23814.0548-1.11415.4363-2.25406.8823-3.29737.504-1.175338 1.4925-1.7919847 2.853-1.86765689 1.507-.08533251 2.6534.42183089 3.3215 1.75172689.7069 1.40879 1.3219 2.8675 1.9224 4.3262 1.0337 2.51328 2.2283 4.92674 4.0252 6.99564.1722.1981.3397.3993.4524.5313 2.2943-1.6792 4.521-3.3424 6.7815-4.95891 2.5261-1.81075 5.2488-3.33009 8.1162-4.52907 1.6101-.67461 3.1718-.38802 3.8996.78088.6569 1.05619.5377 2.24118.1143 3.33118-1.3609 3.58032-3.0874 7.01062-5.1522 10.23672-1.061 1.6326-2.1284 3.2603-3.2088 4.9154 2.0416 1.2237 4.2039 1.7711 6.4563 2.0013 1.9728.199 3.9036.6985 5.7253 1.4813.5857.2627 1.1434.5836 1.6648.958 1.6213 1.1189 1.4877 4.1716-.8517 4.8478-4.9799 1.449-9.9291 2.9883-14.9074 4.4389-1.8693.5442-1.8049.483-1.8258 2.4392-.0435 4.4679-.1803 8.9358-.2785 13.4037-.0322 1.5263-.0741 3.0591-.0805 4.5773 0 1.156-.4251 2.1189-1.5183 2.502-.9934.351-2.4827.3784-3.241-.6955-.631-.8599-1.1812-1.7761-1.6439-2.7371-1.127-2.4553-2.1301-4.967-3.2555-7.4239-.4573-.9918-1.0965-1.8902-1.6954-2.9045zm-10.2351 3.716.153.0949c.5941-.5973 1.1995-1.1849 1.7807-1.7952 1.9932-2.093 3.9704-4.1716 5.128-6.9232.7809-1.8563 3.3553-2.1606 4.8301-.6923 1.9578 1.9521 3.5602 4.2307 4.7352 6.7332.1288.2721.2753.5346.4122.8051l.2865-.058c0-1.0063.0129-2.0142 0-3.0204-.0402-2.8643-.0708-5.7286-.1481-8.5913-.0386-1.4796.6972-2.436 1.9321-3.059.6029-.2883 1.2328-.5165 1.8805-.6811 2.4505-.6714 4.9107-1.3025 7.3595-1.9771.6151-.1691 1.2011-.4444 1.9675-.7342-.1376-.0651-.2803-.1189-.4266-.161-2.8579-.2786-5.4001-1.4732-7.9102-2.7516-1.0964-.5587-1.6101-1.4329-1.6632-2.7033-.0724-1.7308.7245-3.0848 1.5843-4.4534 1.6648-2.6501 3.3183-5.3083 4.9606-7.9745.1246-.2301.2359-.4672.3332-.71-3.5211 2.1397-6.9795 4.2601-9.7585 7.2452-1.1028 1.1817-3.7932 1.2107-4.8301-.0918-2.077-2.6228-4.2731-5.1522-5.5724-8.2998-.227-.55063-.4926-1.08517-.7406-1.62615-.1159.4256-.1643.86676-.1433 1.30736.0081 3.77399 0 7.54949.037 11.32349.0081.9113-.3654 1.5279-1.1012 1.99-1.6874 1.0642-3.3586.9209-4.9638-.3397-.9049-.7133-1.887-1.3251-2.8353-1.9836l-.2447.2818c.7148.8452 1.4136 1.705 2.1494 2.5326.5506.6182 1.2043 1.1511 1.7115 1.8016 1.0884 1.3943.5248 3.6194-1.0417 4.199-2.0384.7551-4.1024 1.3943-6.32913 1.2462-.52487-.0354-1.05941.0901-1.58912.1433l-.0644.3091c1.80325.9757 3.59365 1.9755 5.41295 2.9206 1.2333.644 2.5246 1.1705 3.7514 1.8194.8244.4379 1.5135 1.0835 1.5328 2.1059.036.8002-.024 1.6018-.1787 2.3877-.4959 2.1639-1.0755 4.3085-1.6278 6.4595-.2511.9725-.5136 1.9466-.7696 2.9207z" fill="#000"/></svg>